<svg id="Group_2" data-name="Group 2" xmlns="http://www.w3.org/2000/svg" width="55.918" height="55.918" viewBox="0 0 55.918 55.918">
  <path id="Path_1" data-name="Path 1" d="M27.958,0a27.956,27.956,0,1,0,0,55.913v.005A27.959,27.959,0,1,0,27.958,0Z" fill="#ff724a"/>
  <g id="Group_1" data-name="Group 1">
    <path id="Path_2" data-name="Path 2" d="M50.885,26.953H44.7a16.692,16.692,0,0,0-1.046-4.922l5.625-2.52a1.006,1.006,0,1,0-.823-1.835l-5.617,2.516a16.828,16.828,0,0,0-2.33-3.363l4.357-4.357,0,0a1,1,0,0,0,0-1.417l0,0a1,1,0,0,0-1.417,0l-4.357,4.357a16.765,16.765,0,0,0-4.224-2.744l2.193-5.75A1.007,1.007,0,0,0,35.178,6.2l-2.187,5.737a16.774,16.774,0,0,0-4.027-.718V5.054a1,1,0,1,0-2.007,0v6.162a16.7,16.7,0,0,0-4.928,1.048L19.511,6.643a1.006,1.006,0,0,0-1.835.824l2.515,5.612a16.849,16.849,0,0,0-3.362,2.33l-4.358-4.357,0,0a1,1,0,0,0-1.417,0l0,0a1,1,0,0,0,0,1.417l4.358,4.358a16.756,16.756,0,0,0-2.743,4.223L6.913,18.861A1,1,0,1,0,6.2,20.738l5.74,2.188a16.783,16.783,0,0,0-.718,4.027H5.071a1.006,1.006,0,0,0,0,2.011h6.147a16.692,16.692,0,0,0,1.046,4.924L6.649,36.4a1.008,1.008,0,0,0,.823,1.841l5.61-2.513a16.81,16.81,0,0,0,2.326,3.357l-4.357,4.358a1.006,1.006,0,0,0,.713,1.716h0a1.007,1.007,0,0,0,.713-.295l4.356-4.355a16.768,16.768,0,0,0,4.222,2.743l-2.192,5.752a1,1,0,0,0,.582,1.3.972.972,0,0,0,.358.067v0a1.009,1.009,0,0,0,.94-.65l2.186-5.732a16.8,16.8,0,0,0,4.03.719v6.166a1,1,0,1,0,2.007,0V44.7a16.717,16.717,0,0,0,4.927-1.052l2.519,5.62a1,1,0,0,0,.917.595v0a1.005,1.005,0,0,0,.917-1.418l-2.517-5.617a16.8,16.8,0,0,0,3.356-2.327l4.362,4.362a1.009,1.009,0,0,0,.713.295h0a1.007,1.007,0,0,0,.713-1.717l-4.365-4.364a16.824,16.824,0,0,0,2.743-4.219l5.755,2.193a.977.977,0,0,0,.358.068h0a1,1,0,0,0,.357-1.945L43.98,32.989a16.81,16.81,0,0,0,.722-4.025h6.183a1.006,1.006,0,0,0,0-2.011Zm-7.636,1c0,.341-.029.674-.051,1.008a15.257,15.257,0,0,1-14.234,14.23c-.335.022-.668.051-1.009.051s-.666-.029-1-.051a15.259,15.259,0,0,1-14.24-14.23c-.022-.336-.051-.671-.051-1.013s.029-.666.051-1A15.36,15.36,0,0,1,20.8,14.443a15.63,15.63,0,0,1,6.154-1.731c.333-.021.665-.05,1-.05v0c.338,0,.67.03,1,.052a15.229,15.229,0,0,1,3.491.628,15.031,15.031,0,0,1,1.876.731A15.277,15.277,0,0,1,43.2,26.953c.022.333.051.664.051,1Z" fill="#fff"/>
    <path id="Path_3" data-name="Path 3" d="M7.062,38.331h0Z" fill="#fff"/>
    <path id="Path_4" data-name="Path 4" d="M32.345,19.281H24.554v5.45H18.966V36.637H31.371v-5.45h5.584V19.281h-4.61ZM30.232,31.654v3.891H20.1v-9.72h4.449v5.362h5.678Zm0-5.814v4.253H25.691V25.825h4.541Zm5.585-4.316v8.569H31.371V24.731h-5.68V20.373H35.817Z" fill="#fff"/>
  </g>
</svg>
