<svg xmlns="http://www.w3.org/2000/svg" width="55.93" height="55.922" viewBox="0 0 55.93 55.922">
  <g id="Group_4" data-name="Group 4" transform="translate(0.007 0.006)">
    <g id="Group_3" data-name="Group 3">
      <path id="Path_9" data-name="Path 9" d="M.658,33.995A27.961,27.961,0,0,0,33.9,55.273L21.814.686A27.958,27.958,0,0,0,.658,33.995Z" fill="#ff3a38"/>
      <path id="Path_10" data-name="Path 10" d="M34,55.257A27.959,27.959,0,1,0,21.916.661c-.034.007-.068.017-.1.025L33.9,55.273l.1-.021Z" fill="#1572ff"/>
    </g>
    <path id="Path_21" data-name="Path 21" d="M21.653,34.848V32.137H19.591V33.7H18.583V32.137H16.468v2.181H15.422V23.9c3.358-.258,5.963-2.111,5.963-4.366,0-2.428-3.025-4.4-6.761-4.4v1.6a7.291,7.291,0,0,1,3.875,1.02,2.407,2.407,0,0,1,1.251,1.778c0,1.2-1.74,2.533-4.327,2.764V21.8a.882.882,0,0,0-.889-.872h0a.882.882,0,0,0-.893.87v.477a6.812,6.812,0,0,1-2.889-.962A2.409,2.409,0,0,1,9.5,19.533c0-1.324,2.107-2.8,5.127-2.8v-1.6h0c-3.735,0-6.762,1.97-6.762,4.4,0,2.212,2.508,4.041,5.776,4.35V39.912a.893.893,0,0,0,1.785,0h0v-3.97h1.045v3.634h2.115v-1.95h1.008v1.95h2.062V36.1H19.664V34.848Z" fill="#fff"/>
    <path id="Path_27" data-name="Path 27" d="M38.635,37.2q1.082-2.458,2.166-4.916c-.073-.032-.147-.062-.222-.1-.33.635-.694,1.256-.987,1.906-.55,1.223-.807,2.573-1.778,3.611-.157.168-.315.336-.473.5l-.151-.063,1.6-3.708-.168-.074-1.762,2.068c-.049-.029-.1-.058-.147-.086q.751-1.516,1.507-3.033c-.05-.021-.1-.043-.15-.062l-.453.865-.115-.026.108-.638-.088-.037-.792,1.829c-.068-.012-.136-.027-.2-.041.739-1.779.05-3.536.011-5.306h-.178c0,1.055-.033,2.112.011,3.165a3.456,3.456,0,0,1-.579,2.454l.129-2.621c-.048-.006-.1-.009-.145-.013q-.414.962-.827,1.912l-.125-.05.193-2.354c-.052-.006-.106-.009-.158-.015l-1.606,1.811-.165-.125c.34-.65.713-1.285,1.005-1.953a3.193,3.193,0,0,0,.25-2.194c-1.873,2.288-1.947,2.36-2.888,2.7a10.1,10.1,0,0,0,1.723-4.432c-1.671,2.133-1.686,2.145-2.631,2.285a6.927,6.927,0,0,0,1.513-4.6q-.723,1.671-1.444,3.348l-.21-.066c.8-2.465.353-5.134,1.435-7.546a7.55,7.55,0,0,1,1.276-2.055,3.05,3.05,0,0,1,4.756.175,7.188,7.188,0,0,1,1.517,5.293,30.189,30.189,0,0,0-.07,3.023,9.368,9.368,0,0,0,.409,1.715c.923-.882,1.726-1.607,2.465-2.385a.862.862,0,0,0,.13-.8,5.406,5.406,0,0,1,.405-5.7c.222-.332.43-.669.637-1.009.027-.044,0-.118,0-.271l-1.671.361c-.361-.729.2-1.23.437-1.905-.3.148-.607.3-.936.457,0-.9.749-1.2,1.549-1.628l-.946-.15c.414-.739.744-.8,2.271-.392-.213-.257-.37-.446-.645-.78a6.062,6.062,0,0,1,2.622.235c.85.4,1.009,1.235,1.124,2.06.382-.048.717-.089,1.051-.133l.128.14q-.557.682-1.114,1.364l1.311.667-.894.266a4.155,4.155,0,0,1,.326,1.124,1.431,1.431,0,0,1-.4.88c-.116.125-.473.054-.727.071a1.355,1.355,0,0,0,1.376,1.331h.031a1.951,1.951,0,0,1,1.472,1.028,6.713,6.713,0,0,1,.463,6.292,5.725,5.725,0,0,1-.37.789c-.12.209-.172.575-.6.312-.046-.026-.241.073-.294.156A10.929,10.929,0,0,1,45.476,35.1a21.344,21.344,0,0,0-1.851,1.373,4.543,4.543,0,0,0-1.685,3.367c-.021.186-.052.371-.091.554-1.1-.687-1.387-2.429-.93-5.841L38.7,37.3c-.019-.034-.041-.067-.062-.1" fill="#fff"/>
  </g>
</svg>
