<svg xmlns="http://www.w3.org/2000/svg" width="55.921" height="55.918" viewBox="0 0 55.921 55.918">
  <g id="Group_150" data-name="Group 150" transform="translate(-849 -576)">
    <g id="Group_149" data-name="Group 149">
      <path id="Path_142" data-name="Path 142" d="M18.183,36.365A27.959,27.959,0,1,0-9.777,8.4a27.961,27.961,0,0,0,27.96,27.96" transform="translate(858.777 595.553)" fill="#c97070"/>
      <g id="Group_133" data-name="Group 133" transform="translate(384.975 260.04)">
        <path id="Path_141" data-name="Path 141" d="M477.086,360.269l4.97-15.94L473.4,338.1l11.751-.951,5.047-11.715,5.07,9.658,10.578-.987-4.56,5.953-.656-.693-.977-.289,3.158-2.96-8.629,1.032-3.984-7.768-3.817,9.7-8.18.289,6.443,4.231-4.007,11.161,6.14-5.263,1.037,1.2Z" fill="#fff"/>
      </g>
      <g id="Group_137" data-name="Group 137" transform="translate(384.975 259.04)">
        <path id="Path_143" data-name="Path 143" d="M0,0,2.067.555,2.022,18.118,0,19.353Z" transform="translate(488.467 349.626) rotate(-58.584)" fill="#fff"/>
      </g>
      <g id="Group_138" data-name="Group 138" transform="translate(387.975 256.04)">
        <path id="Path_143-2" data-name="Path 143" d="M0,3.376l1.935.4.083,14.338L0,19.353Z" transform="translate(485.467 348.626) rotate(-58.584)" fill="#fff"/>
        <path id="Path_144" data-name="Path 144" d="M-.107,6.341,1.812,6.8l.21,11.314L0,19.353Z" transform="translate(485.467 344.626) rotate(-58.584)" fill="#fff"/>
        <path id="Path_145" data-name="Path 145" d="M.121,9.5,2,9.943l.018,8.174L0,19.353Z" transform="translate(485.467 340.626) rotate(-58.584)" fill="#fff"/>
      </g>
    </g>
  </g>
</svg>
