<svg xmlns="http://www.w3.org/2000/svg" width="32.788" height="51.747" viewBox="0 0 32.788 51.747">
  <g id="Group_151" data-name="Group 151" transform="translate(-751.49 -578)">
    <g id="Group_121" data-name="Group 121" transform="translate(-3 -17)">
      <g id="Group_120" data-name="Group 120" transform="translate(-249 -52)">
        <path id="Path_137" data-name="Path 137" d="M257.016-244.865q-1.481,7.741-2.961,15.483c-.182.956-.272,1.935-.526,2.872a4.307,4.307,0,0,1-4.334,3.582c-5.705.054-11.412.041-17.118.008a4.117,4.117,0,0,1-4.388-3.475q-1.832-9.436-3.384-18.925c-.393-2.369.74-4.02,2.951-5.035,2.231-1.024,4-1.808,6.492.231,3.651,2.992,10.084,2.543,14.042-.133.825-.558,1.957-1.6,2.559-1.379a35.858,35.858,0,0,1,5.7,3.017c.432.256.653.867.971,1.314Z" transform="translate(779.261 921.64)" fill="#d68484"/>
        <path id="Path_138" data-name="Path 138" d="M248.458-298.292c4.263,1.251,6.639,4.136,7.405,8.448.467,2.63,1,5.249,1.48,7.877.273,1.489-.475,2.121-1.892,2.122q-7.58.006-15.16,0c-1.572,0-2.265-.815-2.02-2.327.52-3.2.98-6.416,1.689-9.574.781-3.48,3.194-5.523,6.54-6.549Z" transform="translate(772.162 945.292)" fill="#d68484"/>
      </g>
    </g>
  </g>
</svg>
