<svg xmlns="http://www.w3.org/2000/svg" width="55.921" height="55.918" viewBox="0 0 55.921 55.918">
  <g id="Group_139" data-name="Group 139" transform="translate(-1236 -476)">
    <path id="Path_123" data-name="Path 123" d="M18.183,36.365A27.959,27.959,0,1,0-9.777,8.4a27.961,27.961,0,0,0,27.96,27.96" transform="translate(1245.777 495.553)" fill="#5a0e0e"/>
    <g id="Group_118" data-name="Group 118" transform="translate(1928.536 -497.929)">
      <path id="Path_124" data-name="Path 124" d="M-635.879,1026.042a11.514,11.514,0,0,0-1.081-.733c-1.273-.754-2.529-1.532-3.726-2.4a10.955,10.955,0,0,1-1.7-1.367,2.213,2.213,0,0,1-.677-1.56c.007-.436.031-.871.028-1.307a6.168,6.168,0,0,0-.059-.959,1.842,1.842,0,0,0-1.9-1.508c0,.064,0,.129,0,.194-.007.315-.006.631-.023.945-.03.538-.238.749-.772.8-.175.015-.351.027-.526.027q-3.1,0-6.2,0a4.771,4.771,0,0,1-.544-.035.638.638,0,0,1-.655-.628,4.89,4.89,0,0,1-.042-.616c-.007-.228,0-.456,0-.733-.259.061-.484.1-.7.169a1.746,1.746,0,0,0-1.244,1.625c-.045.645,0,1.3.011,1.944a1.994,1.994,0,0,1-.4,1.293,4.565,4.565,0,0,1-.691.743,34.9,34.9,0,0,1-3.55,2.5c-.8.507-1.626.986-2.415,1.516a2.732,2.732,0,0,0-1.2,1.761,5.854,5.854,0,0,0-.127,1.1c-.014,1.455-.024,2.911,0,4.365a13.237,13.237,0,0,0,.185,2.041,1.66,1.66,0,0,0,1.618,1.482,9.246,9.246,0,0,0,1.033.04q6.712,0,13.423,0,5.23,0,10.46,0a7.7,7.7,0,0,0,.906-.043,1.659,1.659,0,0,0,1.527-1.274,4.252,4.252,0,0,0,.163-.873c.046-.762.083-1.526.084-2.289,0-1.339,0-2.68-.052-4.018A2.808,2.808,0,0,0-635.879,1026.042Zm-13.5,7.588a7.235,7.235,0,0,1-7.166-7.215,7.221,7.221,0,0,1,7.195-7.109,7.22,7.22,0,0,1,7.137,7.126A7.231,7.231,0,0,1-649.376,1033.63Z" transform="translate(-14.805 -22.251)" fill="#fff"/>
      <path id="Path_125" data-name="Path 125" d="M-647.236,995.411a8.856,8.856,0,0,0-1.1-1.051,19.468,19.468,0,0,0-5.065-2.845,22.183,22.183,0,0,0-5.442-1.3c-1.779-.208-3.568-.228-5.751-.286-1.155.058-2.708.1-4.253.222a21.639,21.639,0,0,0-6.08,1.35,19.115,19.115,0,0,0-5.423,3.127,6.321,6.321,0,0,0-.883.935,1.271,1.271,0,0,0-.208,1.3,6.182,6.182,0,0,0,.381.9,17.6,17.6,0,0,0,1.03,1.624,1.123,1.123,0,0,0,1.419.416,3.792,3.792,0,0,0,.519-.216c1.161-.589,2.325-1.174,3.478-1.78.675-.355,1.339-.733,1.993-1.126a1.049,1.049,0,0,0,.606-1.073,3.823,3.823,0,0,0-.24-.738c-.058-.159-.148-.306-.2-.466a.466.466,0,0,1,.226-.606,3.082,3.082,0,0,1,.548-.238,21.508,21.508,0,0,1,5.728-.986,30.8,30.8,0,0,1,4.434.064,21.376,21.376,0,0,1,4.27.741,8.749,8.749,0,0,1,1.088.4.451.451,0,0,1,.271.572,2.43,2.43,0,0,1-.142.371c-.088.212-.2.417-.266.635a1.018,1.018,0,0,0,.32,1.135,2.443,2.443,0,0,0,.474.334c1.408.759,2.815,1.519,4.231,2.26a15.948,15.948,0,0,0,1.584.725,1.117,1.117,0,0,0,1.325-.367c.012-.014.024-.027.035-.042A10.013,10.013,0,0,0-646.957,997,1.449,1.449,0,0,0-647.236,995.411Z" fill="#fff"/>
      <path id="Path_126" data-name="Path 126" d="M-582.881,1065.6a2.783,2.783,0,0,0-2.8,2.807,2.8,2.8,0,0,0,2.846,2.825,2.794,2.794,0,0,0,2.8-2.834A2.774,2.774,0,0,0-582.881,1065.6Z" transform="translate(-81.323 -64.196)" fill="#fff"/>
      <path id="Path_127" data-name="Path 127" d="M-544.021,1086.664a.7.7,0,0,0-.726.74.713.713,0,0,0,.707.686.738.738,0,0,0,.746-.715A.72.72,0,0,0-544.021,1086.664Z" transform="translate(-116.05 -82.068)" fill="#fff"/>
      <path id="Path_128" data-name="Path 128" d="M-544.713,1072.9a.668.668,0,0,0,.713.7.688.688,0,0,0,.73-.676.741.741,0,0,0-.722-.74A.672.672,0,0,0-544.713,1072.9Z" transform="translate(-116.079 -69.784)" fill="#fff"/>
      <path id="Path_129" data-name="Path 129" d="M-597.365,1087.312a.737.737,0,0,0-.7-.7.683.683,0,0,0-.726.695.7.7,0,0,0,.718.745A.727.727,0,0,0-597.365,1087.312Z" transform="translate(-70.197 -82.028)" fill="#fff"/>
      <path id="Path_130" data-name="Path 130" d="M-578.252,1106.516a.688.688,0,0,0-.718.723.715.715,0,0,0,.677.716.74.74,0,0,0,.755-.725A.7.7,0,0,0-578.252,1106.516Z" transform="translate(-87.016 -98.91)" fill="#fff"/>
      <path id="Path_131" data-name="Path 131" d="M-550.523,1060.406a.677.677,0,0,0-.722-.713.684.684,0,0,0-.7.7.669.669,0,0,0,.709.72A.685.685,0,0,0-550.523,1060.406Z" transform="translate(-109.941 -59.187)" fill="#fff"/>
      <path id="Path_132" data-name="Path 132" d="M-598.1,1073.6a.723.723,0,0,0,.731-.723.7.7,0,0,0-.691-.7.672.672,0,0,0-.742.707A.675.675,0,0,0-598.1,1073.6Z" transform="translate(-70.189 -69.782)" fill="#fff"/>
      <path id="Path_133" data-name="Path 133" d="M-578.273,1053.783a.728.728,0,0,0,.74-.713.743.743,0,0,0-.692-.728.684.684,0,0,0-.736.719A.723.723,0,0,0-578.273,1053.783Z" transform="translate(-87.023 -52.95)" fill="#fff"/>
      <path id="Path_134" data-name="Path 134" d="M-590.84,1061.1a.672.672,0,0,0,.7-.715.683.683,0,0,0-.727-.694.667.667,0,0,0-.7.678A.675.675,0,0,0-590.84,1061.1Z" transform="translate(-76.332 -59.189)" fill="#fff"/>
      <path id="Path_135" data-name="Path 135" d="M-590.848,1099.287a.685.685,0,0,0-.7.682.68.68,0,0,0,.68.738.716.716,0,0,0,.743-.688A.68.68,0,0,0-590.848,1099.287Z" transform="translate(-76.346 -92.778)" fill="#fff"/>
      <path id="Path_136" data-name="Path 136" d="M-563.818,1053.738a.691.691,0,0,0,.761-.734.705.705,0,0,0-.666-.706.71.71,0,0,0-.741.711A.673.673,0,0,0-563.818,1053.738Z" transform="translate(-99.323 -52.913)" fill="#fff"/>
    </g>
  </g>
</svg>
