<svg height="55.918" viewBox="0 0 55.918 55.918" width="55.918" xmlns="http://www.w3.org/2000/svg"><g transform="translate(-397.984 -61.988)"><path d="m425.944 117.906a27.959 27.959 0 1 0 -27.96-27.965 27.959 27.959 0 0 0 27.96 27.965" fill="#fe1f20"/><path d="m426.011 86.673c.582 1.8.105 2.965-1.308 3.7a4.694 4.694 0 0 1 -4.046.446c-.008 0 .085-.265.132-.409l-2.229-.143.626-.432-3.16-1.036a18.721 18.721 0 0 1 6.919-3.187c4.368-.81 4.469-2.728 4.26-6.178-.109-1.8-.309-3.593-.44-5.392a12.149 12.149 0 0 1 .014-1.759c.1-1.318.495-2.552 1.829-3.043a3.692 3.692 0 0 1 3.812.748 9.56 9.56 0 0 0 1.161.681c-.651.158-1.028.272-1.414.341-1.838.325-2.487 1.107-2.337 3.011a19.224 19.224 0 0 0 2.305 7.836c.679 1.236 1.37 2.471 1.953 3.753a5.117 5.117 0 0 1 .3 4.11 1.653 1.653 0 0 1 -2.313 1.09l.269-2.432c-.852 2.2-1 2.373-2.907 3.123l3.787-.2c-1.461 3.157-2.711 6.26-5.987 7.91-1.658.834-1.765 1.3-1.039 3.006.338.792.73 1.561 1.091 2.344.767 1.662 1.554 3.3 3.628 3.557l-.328.917-.925-.305.156.572-2.909-1.539.51-.424c0-.1.029-.189 0-.245-1.033-1.755-2.085-3.5-3.1-5.263-.271-.47-.444-1-.793-1.8-.367.027-1.268-.163-1.621.192s-.2 1.257-.206 1.92a3.938 3.938 0 0 0 .214.912c.621 2.616 1.057 5.375 4.729 5.641l-.212.281a7.254 7.254 0 0 1 -1.451.217 7.9 7.9 0 0 1 -1.668-.327c-.586-.156-1.156-.368-1.764-.565.778-.432.568-1.089.276-1.826-.721-1.819-1.427-3.646-2.038-5.5a5.5 5.5 0 0 1 .1-1.813c-1.106-.693-2.387-1.438-3.6-2.287-.424-.3-.611-.916-1.006-1.279a8.358 8.358 0 0 0 -1.973-1.482c-.635-.3-1.282-.3-1.4-1.264-.077-.624-.69-1.164-.929-1.792a2.191 2.191 0 0 1 -.03-1.34c.048-.154.652-.167 1.007-.189.584-.036 1.262.161 1.74-.071 1.721-.837 3.031.056 4.446.789 2.052 1.064 4.17 1.854 6.5.8 1.929-.864 2.558-2.525 1.369-4.375zm-11.5 4.431c-.741-.645-1.381-.926-2.239-.453.728.977 1.051 1.049 2.236.449zm2.593 2.914-.233-.6-1.62.608.178.52z" fill="#fff"/></g></svg>