<svg xmlns="http://www.w3.org/2000/svg" width="55.921" height="55.918" viewBox="0 0 55.921 55.918">
  <g id="Group_141" data-name="Group 141" transform="translate(-1086.726 -474.973)">
    <g id="Group_114" data-name="Group 114">
      <path id="Path_106" data-name="Path 106" d="M18.183,36.365A27.959,27.959,0,1,0-9.777,8.4a27.961,27.961,0,0,0,27.96,27.96" transform="translate(1096.503 494.526)" fill="#c4a96c"/>
      <g id="EIn7v4" transform="translate(1345.475 780.074)">
        <g id="Group_106" data-name="Group 106" transform="translate(-242.951 -294.021)">
          <path id="Path_112" data-name="Path 112" d="M-219.953-250.834c-.106.252-.2.5-.313.745a12.963,12.963,0,0,1-1.126,2.08,2.66,2.66,0,0,1-2.687,1.247,2.049,2.049,0,0,1-1.329-.649,4.86,4.86,0,0,1-.375-.591c-.1.066-.238.162-.38.24a2.568,2.568,0,0,1-2.246.17,2.009,2.009,0,0,1-1.079-1.2c-.012-.029-.023-.059-.042-.107a2.029,2.029,0,0,1-2.044.58c.228.168.457.334.683.505a9.226,9.226,0,0,1,1.577,1.535,6.916,6.916,0,0,1,.942,1.42,8.1,8.1,0,0,1,.8,2.916c0,.064,0,.129,0,.194,0,.032,0,.064-.008.133-.114-.3-.2-.567-.319-.82-.226-.483-.454-.967-.711-1.43a11.925,11.925,0,0,0-1.279-1.837,11.454,11.454,0,0,0-1.907-1.879c-.4-.3-.812-.574-1.228-.843a1.338,1.338,0,0,0-.856-.226c-.646.045-1.3.011-1.947,0a.3.3,0,0,0-.26.1,4.346,4.346,0,0,1-1.275,1.092,3.4,3.4,0,0,1-1.937.368.987.987,0,0,1-.295-.1.171.171,0,0,1-.073-.124c0-.031.047-.079.082-.1a.573.573,0,0,1,.2-.057,3.635,3.635,0,0,0,1.746-.57,3.145,3.145,0,0,0,.877-.781c-.308-.14-.614-.262-.9-.417a5.515,5.515,0,0,1-.7-.452,2.066,2.066,0,0,1-.7-1.286,1.77,1.77,0,0,1,0-.97.9.9,0,0,1,.1-.161c.053.212.091.382.138.549a2.551,2.551,0,0,0,.886,1.279,3.651,3.651,0,0,0,1.552.842,6.038,6.038,0,0,0,1.046.117,6.984,6.984,0,0,0,2.213-.228,4.388,4.388,0,0,0,1.721-.837,2.165,2.165,0,0,0,.565-2.08.765.765,0,0,0-.474-.5c-.4-.141-.807-.253-1.21-.38-.436-.137-.871-.283-1.309-.416A14.9,14.9,0,0,1-236.37-255a5.442,5.442,0,0,0-1.708-.629,2.051,2.051,0,0,0-2.1.981,10.042,10.042,0,0,0-1.051,2.033q-.565,1.394-1.076,2.813a12.58,12.58,0,0,0-.59,2.245,4.735,4.735,0,0,0,.294,2.54,9.258,9.258,0,0,0,1.812,2.767c.762.849,1.614,1.588,2.444,2.352q1.183,1.089,2.356,2.191c.2.19.374.415.557.626a2.646,2.646,0,0,1,.517,1.433,18.339,18.339,0,0,1,.174,3.11c-.038,1.19-.109,2.378-.185,3.566-.053.827-.14,1.652-.211,2.478-.042.5.149.725.612.725h12.04c.484,0,.6-.13.584-.652q-.062-2.351-.122-4.7c-.018-.679-.05-1.357-.056-2.036a3.714,3.714,0,0,1,.542-2.075,8.306,8.306,0,0,0,.987-2.438c.168-.668.371-1.328.516-2,.141-.654.255-1.317.331-1.983a32.313,32.313,0,0,0,.049-4.762c-.028-.813-.079-1.625-.131-2.437-.042-.65-.1-1.3-.152-1.949C-219.932-250.81-219.941-250.817-219.953-250.834Z" transform="translate(242.951 260.828)" fill="#fff"/>
          <path id="Path_113" data-name="Path 113" d="M-208.2-273.694a8.832,8.832,0,0,0,.183,1.055,1.084,1.084,0,0,0,1.053.855,2.15,2.15,0,0,0,1.109-.146,1.638,1.638,0,0,0,.689-.776,15.823,15.823,0,0,0,1.023-3.22c.179-.693.384-1.377.554-2.073a16.27,16.27,0,0,0,.484-2.538,2.114,2.114,0,0,0-1.356-2.178,2.293,2.293,0,0,0-2.054.19,1.636,1.636,0,0,0-.806,1.311c-.077.786-.183,1.569-.275,2.354-.106.9-.213,1.793-.315,2.69-.084.741-.163,1.483-.241,2.225a2.322,2.322,0,0,0,0,.242Z" transform="translate(222.156 284.375)" fill="#fff"/>
          <path id="Path_114" data-name="Path 114" d="M-167.6-282.335a3.486,3.486,0,0,0,.634.173,1.782,1.782,0,0,0,1.574-.54,1.1,1.1,0,0,0,.266-.648q.161-1.459.329-2.917.176-1.538.355-3.076c.077-.656.172-1.31.231-1.968a2.8,2.8,0,0,0-.277-1.451,2.078,2.078,0,0,0-1.421-1.165,2.331,2.331,0,0,0-2.062.37,2.245,2.245,0,0,0-.776,1.316,6.782,6.782,0,0,0-.159,1.65c-.008.619-.023,1.238-.025,1.857,0,.388.018.775.021,1.163a.135.135,0,0,0,.112.154c.734.217,1.469.432,2.2.662a3.873,3.873,0,0,1,.726.308.761.761,0,0,1,.346.611,3.457,3.457,0,0,1-.276,1.931,2.77,2.77,0,0,1-1.076,1.149c-.228.138-.467.255-.7.382Z" transform="translate(178.384 294.021)" fill="#fff"/>
          <path id="Path_115" data-name="Path 115" d="M-236.519-249.125a1.571,1.571,0,0,0,1.122-.494,6.11,6.11,0,0,0,1.2-1.956c.185-.422.368-.846.517-1.284a7.2,7.2,0,0,0,.462-2.434,2.364,2.364,0,0,0-1.357-2.11,1.936,1.936,0,0,0-.848-.207.964.964,0,0,0-.942.757c-.2.659-.407,1.313-.6,1.973-.283.973-.564,1.946-.825,2.926a7.853,7.853,0,0,0-.222,1.213,1.342,1.342,0,0,0,.237,1.065,1.662,1.662,0,0,0,.572.405A3.351,3.351,0,0,0-236.519-249.125Z" transform="translate(255.97 262.518)" fill="#fff"/>
          <path id="Path_116" data-name="Path 116" d="M-125.759-288.5c.35.019.681.025,1.01.058a4.052,4.052,0,0,1,1.4.416c.531.261,1.046.56,1.568.842.242.131.484.259.73.391,0-.32.009-.62,0-.92-.03-.818-.06-1.637-.1-2.454a3.911,3.911,0,0,0-.392-1.672,1.975,1.975,0,0,0-.993-.856,2.944,2.944,0,0,0-1.75-.206,1.747,1.747,0,0,0-1.037.545,2.013,2.013,0,0,0-.459,1.2,13.294,13.294,0,0,0,.024,2.629A.092.092,0,0,0-125.759-288.5Z" transform="translate(129.891 293.098)" fill="#fff"/>
        </g>
      </g>
    </g>
  </g>
</svg>
