<svg xmlns="http://www.w3.org/2000/svg" width="55.921" height="55.918" viewBox="0 0 55.921 55.918">
  <g id="Group_156" data-name="Group 156" transform="translate(-849 -576)">
    <path id="Path_142" data-name="Path 142" d="M18.183,36.365A27.959,27.959,0,1,0-9.777,8.4a27.961,27.961,0,0,0,27.96,27.96" transform="translate(858.777 595.553)" fill="#c97070"/>
    <g id="Group_133" data-name="Group 133" transform="translate(384.975 260.04)">
      <path id="Path_141" data-name="Path 141" d="M477.086,360.269l4.97-15.94L473.4,338.1l11.751-.951,5.047-11.715,5.07,9.658,10.578-.987-4.56,5.953-.656-.693-.977-.289,3.158-2.96-8.629,1.032-3.984-7.768-3.817,9.7-8.18.289,6.443,4.231-4.007,11.161,6.14-5.263,1.037,1.2Z" fill="#fff"/>
    </g>
    <path id="Path_50" data-name="Path 50" d="M-1300.315-378.277a1.934,1.934,0,0,0-.45-.207c-.357-.127-.719-.237-1.076-.364s-.451-.424-.212-.686a6.687,6.687,0,0,0,.485-.678,3.151,3.151,0,0,0,.161-1.83,1.841,1.841,0,0,0-.608-1.086,1.721,1.721,0,0,0-2.657.449,7.913,7.913,0,0,0-.271,1.071,2.776,2.776,0,0,0,.66,2.087c.239.3.147.563-.23.679-.115.035-.232.064-.348.1a5.134,5.134,0,0,1-.506.179,1.632,1.632,0,0,0-.774.33c-.552-.131-.593-.453-.282-.848a2.629,2.629,0,0,0,.284-2.994,1.7,1.7,0,0,0-2.951-.1,2.777,2.777,0,0,0,.291,3.19c.253.3.184.568-.191.7-.409.142-.824.266-1.23.416a1.154,1.154,0,0,0-.7.584c-.176-.03-.18-.04-.156-.357.126-.2.245-.409.378-.606a2.413,2.413,0,0,0,.376-1.361,2.318,2.318,0,0,0-.556-1.661,1.693,1.693,0,0,0-1.809-.451,2,2,0,0,1-.217.057h0c-.165.151-.338.294-.493.454a1.977,1.977,0,0,0-.495,1.123,2.736,2.736,0,0,0,.276,1.742c.113.21.3.377.42.585a.64.64,0,0,1,.04.4.238.238,0,0,1-.3.178l-.383.131a1.5,1.5,0,0,0-1.105-1.721c-.359-.1-.706-.233-1.059-.35a.4.4,0,0,1-.2-.7c.063-.075.125-.152.184-.232a2.856,2.856,0,0,0,.449-2,1.855,1.855,0,0,0-1.569-1.749,1.6,1.6,0,0,0-1.255.315,1.434,1.434,0,0,0-.182.132,2.491,2.491,0,0,0-.615,2.086,2.337,2.337,0,0,0,.153.506,1.009,1.009,0,0,0,.068.213q.219.381.453.753c.215.345.153.545-.226.677s-.732.251-1.1.363a1.452,1.452,0,0,0-1.057,1.36q-.013,3.3,0,6.6a.579.579,0,0,0,.108.335c.132.169.276.135.351-.067a3.913,3.913,0,0,0,.149-.478,3.786,3.786,0,0,0,.152-.8c.013-1.812.005-3.625.011-5.438a1.972,1.972,0,0,1,.09-.414.553.553,0,0,1,.458-.378l.092.012c.5-.164.994-.319,1.484-.5a1.6,1.6,0,0,0,.343-.236c.279-.149.512-.008.766.1.483.2.98.36,1.472.535.612.219.787.278.834.978.007.1.02.2.03.307l-.526.285c-.149.224-.315.44-.442.676a1.006,1.006,0,0,0-.118.457c-.006,2.216,0,4.432-.006,6.648a.346.346,0,0,0,.241.366.593.593,0,0,0,.406-.116c.064-.042.081-.188.081-.288.006-1.363,0-2.726.006-4.089,0-.792-.008-1.584.01-2.376a1.615,1.615,0,0,1,.166-.471.057.057,0,0,1,.012-.041l.032-.039.051-.026.094-.055h0q0,2.875,0,5.749c0,.213,0,.426.005.639a.3.3,0,0,0,.272.313c.268.052.454-.11.455-.419,0-.89,0-1.78,0-2.669q0-1.791,0-3.582c0-.122,0-.234-.162-.243l.522-.172c.4-.182.8-.375,1.214-.538a.532.532,0,0,1,.348.044c.245.1.479.22.718.332h0c0,.023,0,.046,0,.069q0,.1-.008.19v.009c0,.1,0,.207,0,.31v0q0,1.746.006,3.492a.37.37,0,0,0,.308.345.414.414,0,0,0,.448-.237q0-1.963.005-3.926a5.226,5.226,0,0,1,.8.288.692.692,0,0,1,.291.67q0,2.341,0,4.682c0,.084-.005.168,0,.251a.355.355,0,0,0,.379.365c.212,0,.336-.107.358-.352.017-.2.006-.41.006-.615,0-1.386-.027-2.772.01-4.156a1.644,1.644,0,0,0-1.209-1.77h0l-.555-.1a.116.116,0,0,1-.02-.008l.029-.036h0l.545-.219c.669-.262,1.335-.53,2.01-.777a.57.57,0,0,1,.366.035c.344.136.681.293,1.021.442-.151-.008-.277.019-.3.2q0,3.055,0,6.111,0,1.334,0,2.668c.244.342.492.342.736,0q.007-4.408.015-8.816h0l.169.043c.739.158.912.372.912,1.119q0,2.958,0,5.916a.638.638,0,0,0,.066.3.34.34,0,0,0,.435.154.409.409,0,0,0,.269-.452c0-2.063.009-4.127,0-6.19a1.481,1.481,0,0,0-.881-1.41.441.441,0,0,1,.089-.068c.5-.2,1.005-.412,1.515-.6a.541.541,0,0,1,.388-.008,11.1,11.1,0,0,0,2.1.785.541.541,0,0,1,.419.434,1.542,1.542,0,0,1,.084.351c.006,1.332,0,2.664,0,4,0,.875.017,1.751-.008,2.626a3.005,3.005,0,0,0,.224,1.078,3.033,3.033,0,0,0,.145.378.145.145,0,0,0,.276,0,.812.812,0,0,0,.1-.341q.005-3.87,0-7.741A1.516,1.516,0,0,0-1300.315-378.277Zm-16.787-1.74a.357.357,0,0,1-.493.009,2.4,2.4,0,0,1-.7-.936h0c-.03-.17-.066-.339-.09-.51a2.379,2.379,0,0,1,.192-1.129,1.223,1.223,0,0,1,.708-.456,1,1,0,0,1,1.084.775A2.051,2.051,0,0,1-1317.1-380.017Zm6.4,3.658a.3.3,0,0,0-.112-.076A.3.3,0,0,1-1310.7-376.359Zm-.146-.087-.009,0Zm-.031-.007-.013,0Zm-.965-1.575c-.2.173-.462.2-.7-.175a1.956,1.956,0,0,1-.351-2.439,1.534,1.534,0,0,1,.351-.3.884.884,0,0,1,1.011.073,1.233,1.233,0,0,1,.426.759A2.078,2.078,0,0,1-1311.841-378.027Zm4.446-1.143a.361.361,0,0,1-.48.011,2.077,2.077,0,0,1-.629-2.5.967.967,0,0,1,.923-.559,1.018,1.018,0,0,1,.88.754c.064.216.089.444.131.667A2.166,2.166,0,0,1-1307.395-379.169Zm3.816-.722c-.068-.068-.123-.149-.184-.225a1.91,1.91,0,0,1-.318-.452,2.04,2.04,0,0,1,.143-1.837.971.971,0,0,1,1.423-.139.77.77,0,0,1,.307.6,1.953,1.953,0,0,1-.539,2.043C-1303.068-379.575-1303.258-379.569-1303.579-379.891Z" transform="translate(2195.752 986.162)" fill="#fff"/>
  </g>
</svg>
