<svg xmlns="http://www.w3.org/2000/svg" width="55.921" height="55.918" viewBox="0 0 55.921 55.918">
  <g id="Group_140" data-name="Group 140" transform="translate(-1165 -475)">
    <g id="Group_113" data-name="Group 113">
      <path id="Path_107" data-name="Path 107" d="M18.183,36.365A27.959,27.959,0,1,0-9.777,8.4a27.961,27.961,0,0,0,27.96,27.96" transform="translate(1174.777 494.553)" fill="#849191"/>
      <g id="Group_112" data-name="Group 112" transform="translate(702.283 33.919)">
        <g id="Group_107" data-name="Group 107" transform="translate(474.754 459.345)">
          <path id="Path_117" data-name="Path 117" d="M482.056,486.1l-.225-.732c.363-.185,4.312-3.145,8.11-6.267a9.471,9.471,0,0,0,3.448-6.876c-15.918-1.79-17.941-9.414-18.02-9.74l-.308-1.274.948.9c.076.072,7.755,7.245,22.2,6.986l.375-.007.017.374C498.611,469.6,499.021,482.823,482.056,486.1Zm-5.221-22.332c1.456,2.278,5.648,6.527,16.981,7.727l.325.035.018.326a10.013,10.013,0,0,1-3.73,7.84c-2.317,1.9-4.97,3.974-6.653,5.228,5.785-1.492,10.009-4.471,12.277-8.685a14.875,14.875,0,0,0,1.776-6.362l-.352,0a37.494,37.494,0,0,1-16.208-3.495A28.212,28.212,0,0,1,476.836,463.764Z" transform="translate(-475.062 -461.206)" fill="#fff"/>
        </g>
        <g id="Group_108" data-name="Group 108" transform="translate(473.717 462.452)">
          <path id="Path_118" data-name="Path 118" d="M483.222,483.82l-.385-.667c1.818-1.146,3.178-5.214,3.566-6.486-11.544-2.832-12.51-9.929-12.545-10.234l-.141-1.2.809.893c.08.089,8.182,8.9,16.335,7.994l.436-.049-.008.439C491.285,474.721,491.109,479.659,483.222,483.82Zm-8.174-16.063a10.124,10.124,0,0,0,1.431,2.411c1.5,1.9,4.546,4.464,10.5,5.843l.39.09-.106.387a23.266,23.266,0,0,1-2.258,5.38c4.31-2.89,5.255-5.848,5.461-6.934C483.794,475.387,477.519,470.125,475.048,467.756Z" transform="translate(-473.717 -465.237)" fill="#fff"/>
        </g>
        <g id="Group_109" data-name="Group 109" transform="translate(476.057 469.114)">
          <path id="Path_119" data-name="Path 119" d="M483.333,483.693l-.326-.224c-.273-.187-6.679-4.623-6.233-8.9l.072-.688,3.61,2.785.039.082c.567,1.178,2.365,4.249,3.856,4.311l.676.029Zm-5.79-8.3c.323,3.107,4.395,6.335,5.579,7.212l.584-.9c-1.879-.677-3.532-3.861-3.866-4.539Z" transform="translate(-476.752 -473.879)" fill="#fff"/>
        </g>
        <g id="Group_110" data-name="Group 110" transform="translate(478.509 453.081)">
          <path id="Path_120" data-name="Path 120" d="M492.891,481.352l4.036-3.919.112-.022c.375-.075,9.167-1.947,7.13-12.452a11.872,11.872,0,0,0-9.691-8.923c-.056-.007-8.17-.917-12.173,4.882l-.24.347-2.132-1.778.2-.289a16.328,16.328,0,0,1,16.544-5.712,12.809,12.809,0,0,1,8.959,6.577c2.378,4.385,2.195,9.37,1.577,10.946-1.671,4.262-3.116,7.943-13.011,10.063Zm4.413-3.212-1.923,1.868c8.279-2.054,9.539-5.267,11.114-9.282.61-1.554.617-6.324-1.537-10.3a11.914,11.914,0,0,0-8.436-6.19,15.632,15.632,0,0,0-15.542,5.119l.935.78c4.345-5.81,12.6-4.876,12.68-4.864a12.867,12.867,0,0,1,10.33,9.539C506.98,475.41,498.417,477.868,497.3,478.14Z" transform="translate(-479.933 -453.081)" fill="#fff"/>
        </g>
        <g id="Group_111" data-name="Group 111" transform="translate(489.938 461.854)">
          <path id="Path_121" data-name="Path 121" d="M499,468.786a7.482,7.482,0,0,1-3.321-.711c-.574-.305-.883-.655-.918-1.037h0c-.095-1.039,2.039-1.819,3.32-2.193a10.489,10.489,0,0,1,6.594.34l.454.169-.267.4a6.569,6.569,0,0,1-2.319,2.177A7.37,7.37,0,0,1,499,468.786Zm-3.471-1.818c0,.038.113.222.554.448a7.175,7.175,0,0,0,6.088-.156,5.676,5.676,0,0,0,1.757-1.519,9.6,9.6,0,0,0-5.631-.156C496.589,466.084,495.534,466.726,495.529,466.968Z" transform="translate(-494.758 -464.461)" fill="#fff"/>
        </g>
      </g>
    </g>
  </g>
</svg>
