<svg xmlns="http://www.w3.org/2000/svg" width="55.917" height="55.918" viewBox="0 0 55.917 55.918"><g transform="translate(-0.002)"><circle cx="22.149" cy="22.149" r="22.149" transform="translate(5.811 5.81)" fill="#fff"/><path d="M27.959,0a27.956,27.956,0,1,0,0,55.913v.005A27.959,27.959,0,0,0,27.959,0ZM41.913,13.032c.513,1.357,1.434,2.6.618,4.35-.243-.736-.415-1.256-.672-2.037-.3.717-.491,1.187-.7,1.689C40.476,16.053,40.755,14.609,41.913,13.032Zm-4.639.03c.556,1.359,1.419,2.6.622,4.383l-.651-2.076c-.317.759-.521,1.25-.732,1.754C35.824,16.08,36.067,14.737,37.274,13.062ZM32.585,13c.662,1.457,1.456,2.672.717,4.422-.265-.729-.445-1.226-.726-2l-.688,1.658C31.2,16.147,31.341,15.194,32.585,13Zm-4.619.129c.668,1.3,1.379,2.494.76,4.346l-.821-2.081c-.281.76-.456,1.233-.63,1.7C26.549,16.154,26.748,14.909,27.966,13.125Zm-4.85-.006a3.571,3.571,0,0,1,.89,4c-.218-.482-.429-.951-.792-1.757l-.6,1.977C21.723,15.67,22.661,14.448,23.116,13.119ZM18.5,13.1a3.65,3.65,0,0,1,.879,4.033c-.226-.512-.427-.971-.756-1.719-.259.767-.428,1.268-.665,1.973C17.12,15.7,18,14.447,18.5,13.1Zm-4.571-.143c1.151,1.9,1.37,2.93.858,4.144-.256-.523-.469-.957-.8-1.639l-.667,1.888C12.484,15.676,13.39,14.417,13.927,12.962ZM29.153,37.239v2.236c2.389.563,5.06.32,6.84,2.61a37.7,37.7,0,0,1-16.1,0c1.774-2.272,4.367-2.108,6.718-2.558.458-2.138.4-2.235-1.674-2.654A14.875,14.875,0,0,1,12.955,23c-.071-1.392-.01-2.791-.01-4.278h2.093a53.628,53.628,0,0,0,.469,6.057A12.5,12.5,0,0,0,26.661,34.784V32.563a11,11,0,0,1-7.744-5.207c-1.611-2.69-1.414-5.609-1.309-8.632h2.21c0,1.224-.031,2.471.006,3.716.115,3.841,3.272,7.352,6.854,7.581.268-1.257.259-2.146-1.288-2.792a5.116,5.116,0,0,1-3.2-5.061c0-1.122,0-2.244,0-3.45h2.133c.431,2.273-.765,5.132,2.383,6.641V18.741h2.31v6.617c3.24-1.527,2.08-4.339,2.5-6.643h2.1c-.05,2.679.643,5.465-1.744,7.584a3.505,3.505,0,0,1-1.311.926c-1.612.374-1.739,1.4-1.351,2.9,2.6-.444,4.788-1.694,5.716-4.13.857-2.251,1.048-4.756,1.561-7.288h1.62c.971,6.2-1.1,12.16-8.953,13.913v2.21A12.718,12.718,0,0,0,38.45,29.3c2.268-3.168,2.367-6.816,2.169-10.584h2.205C44.088,28.322,38.582,35.963,29.153,37.239Z" fill="#ccbe40"/></g></svg>