<svg xmlns="http://www.w3.org/2000/svg" width="55.921" height="55.918" viewBox="0 0 55.921 55.918">
  <g id="Group_45" data-name="Group 45" transform="translate(-687.726 -394.973)">
    <g id="Group_42" data-name="Group 42" transform="translate(-313 -115)">
      <path id="Path_57" data-name="Path 57" d="M18.183,36.365A27.959,27.959,0,1,0-9.777,8.4a27.961,27.961,0,0,0,27.96,27.96" transform="translate(1010.503 529.526)" fill="#77a937"/>
      <g id="Sunflower__Green_symbol_" data-name="Sunflower_(Green_symbol)" transform="translate(1009.695 519.649)">
        <g id="XMLID_1_" transform="translate(0.25 0.25)">
          <g id="Group_41" data-name="Group 41" transform="translate(0 0)">
            <path id="Path_55" data-name="Path 55" d="M37.641,16.64c-.1.382-.555.413-.427,1.025a12.008,12.008,0,0,1-2.561,1.708c.569.966,1.866,1.207,2.3,2.3-.843,1.264-2.57,1.642-4.524,1.793.745,1.276,2.709,2.071,2.817,4.269-2.42,1.549-5.468-.409-7.342-1.281.233,1.9,1.482,3.525,1.621,5.8-2.9-.2-3.652-2.551-5.549-3.757a8.386,8.386,0,0,1,.854,4.013c-.067.988-.622,3.681-1.2,3.756-.354.047-1.275-1.465-1.537-1.792-.589-.738-1.02-1.147-1.451-1.793a16.51,16.51,0,0,1-1.451,4.1c-.663.106-.848.689-1.281,1.025a53.835,53.835,0,0,1-1.708-6.061,25.513,25.513,0,0,1-1.621,2.391c-.534.733-.952,1.755-1.878,1.877a29.1,29.1,0,0,0,.256-5.293,24.017,24.017,0,0,1-3.159,2.9c-.3.046-.21-.3-.512-.256-.184-1.875-.47-3.9.342-5.293A12.4,12.4,0,0,1,4.6,30.47c-.049-.6.5-1.313.683-1.964-.03-.283-.492-.134-.768-.171.316-2.188,1.771-3.238,2.647-4.866C5.091,23.153,2.5,23.357,1.1,22.36c.324-.472.984-.609,1.451-.939-.663-.7-1.6-1.135-2.3-1.792A19.25,19.25,0,0,1,2.725,18.6a8.487,8.487,0,0,1,4.1-1.2,6.565,6.565,0,0,1-4.952-4.1c.361-.351,1.225-.2,1.708-.427a11.842,11.842,0,0,1-1.366-2.561,15.773,15.773,0,0,1,1.708-.085A3.563,3.563,0,0,0,3.579,9.3c1.522-.241,3.027.274,4.439.427C7.312,8.1,6.32,6.757,5.713,5.03a7.88,7.88,0,0,1,4.78,1.622,14.819,14.819,0,0,1,.939-5.208c.736.459,1.257,1.134,1.964,1.622A10.18,10.18,0,0,0,13.824.25c1.956,1.23,3.771,2.6,4.353,5.207.547-2.668,2.546-3.885,4.439-5.207A8.668,8.668,0,0,1,23.3,4.945C24.616,3.9,25.583,2.5,27.653,2.213c.257.95-.152,1.947-.085,2.988,1.171-.482,2.07-1.682,3.244-1.878a8.922,8.922,0,0,1-2.561,6.488,25.916,25.916,0,0,0,6.317-1.622c-.61,2.89-1.869,5.132-4.7,5.806A10.3,10.3,0,0,1,37.641,16.64Z" transform="translate(-0.25 -0.25)" fill="#fae301"/>
          </g>
        </g>
        <path id="Path_56" data-name="Path 56" d="M114.6,108.1c.462,1.252,1.592-.326,2.391,0-.178.534-.877.546-1.281.853a6.056,6.056,0,0,0,2.305-.085c-.638.529-1.521.814-1.793,1.708.81.3,1.833-.385,2.647-.085-.353.8-2.067-.147-2.476.683a1.012,1.012,0,0,0,.512.768c-.073.27-.441.242-.512.512.358.439,1.343.25,1.622.768a3.223,3.223,0,0,0-1.793.342c-.155,1.065.552,1.27.939,1.792-.157.207-.5-.117-.854,0,.439.875,1.677,1.391,1.793,2.305-.978.05-1.241-1.308-2.134-1.622-.213-.013-.265.135-.427.171-.027.6.369.77.342,1.366a2.862,2.862,0,0,1-.939-.512c-1.341,1.051,1.425,2.146.939,3.159-.736-.4-.9-1.373-1.537-1.878-.239.469.163,1.031.171,1.537-.462-.278-.663-.817-1.2-1.025-.254.625.1,1.377.085,2.049-.593-.328-.936-1.612-1.707-1.451-.9.186-.3,1.8-.427,2.647a2.911,2.911,0,0,1-.683-1.964c-.322.162-.319.648-.427,1.025-.538-.414-.426-1.252-1.11-1.366-.813-.137-1.2.787-1.622,1.451-.034-1.349-1.142-2.28-1.964-1.025-.2-.365-.016-1.554-.6-1.793-.679.147-.949.7-1.366,1.11-.027-.4.593-1.244.256-1.964a.232.232,0,0,1-.256-.171c-.476.137-.883.747-1.366.6.093-.447.38-.7.512-1.11-1.084-.14-1.79,1.279-2.817,1.2.505-.974,1.943-1.017,2.647-1.793-.2-.224-.641-.213-.939-.342.011-.359.33-.409.342-.768-.33-.3-1.273.021-1.537-.341.15-.334.808-.161,1.11-.342-.148-.308-.616-.295-.683-.683a1.1,1.1,0,0,0,.854-.427c-.217-1.121-1.387-1.288-2.391-1.622.889-.307,2.315-.075,2.561-1.025-.289-.792-1.484-.679-1.964-1.281.669-.143,1.405.349,2.049.512-.076-.436-.575-.449-.6-.939a1.228,1.228,0,0,0,1.878-1.28c1.679-.013.122-1.481-.256-2.134.716.121.891,1.014,1.537,1.11.978.144,1.65-.956,1.877-1.964.47.373,1.279,1.013,1.964.427a4.956,4.956,0,0,1-.085-1.964c.5.322.264,1.387.683,1.793a.851.851,0,0,0,.683-.427c.355,1.657,1.946.192,2.561,0a2.857,2.857,0,0,0-.085,1.025c.907.952,1.533-.616,2.22-.939.252.831-1.332,2.286-.085,2.818a10.567,10.567,0,0,0,1.878-1.2C115.848,106.844,115,107.472,114.6,108.1Z" transform="translate(-90.529 -94.188)" fill="#76a837"/>
      </g>
    </g>
  </g>
</svg>
