<svg xmlns="http://www.w3.org/2000/svg" width="32.726" height="51.747" viewBox="0 0 32.726 51.747">
  <g id="Group_152" data-name="Group 152" transform="translate(-693 -578)">
    <g id="Group_122" data-name="Group 122" transform="translate(-3 -17)">
      <g id="Group_119" data-name="Group 119" transform="translate(-195 -52)">
        <path id="Path_139" data-name="Path 139" d="M173.866-298.292c.523.2,1.042.4,1.569.588a9.214,9.214,0,0,1,6.17,9.7,9,9,0,0,1-8.609,7.83,9.005,9.005,0,0,1-9.274-7.037,9.09,9.09,0,0,1,5.519-10.278c.574-.241,1.127-.533,1.69-.8Z" transform="translate(734.765 945.292)" fill="#598aad"/>
        <path id="Path_140" data-name="Path 140" d="M160.194-255.962l4.9,15.972,4.888-15.968c3.1,1.263,6.065,2.35,8.92,3.681a4.264,4.264,0,0,1,2.482,4.849c-1.026,6.076-2.141,12.137-3.267,18.2-.542,2.918-2.054,4.133-5.063,4.144q-7.944.029-15.889,0c-3.02-.01-4.516-1.148-5.085-4.12-1.144-5.973-2.2-11.963-3.241-17.954-.388-2.224.309-4.124,2.418-5.1C154.116-253.583,157.075-254.684,160.194-255.962Z" transform="translate(742.261 923.822)" fill="#598aad"/>
      </g>
    </g>
  </g>
</svg>
