<svg xmlns="http://www.w3.org/2000/svg" width="55.921" height="55.918" viewBox="0 0 55.921 55.918">
  <g id="Group_44" data-name="Group 44" transform="translate(-767.726 -395.973)">
    <path id="Path_61" data-name="Path 61" d="M18.183,36.365A27.959,27.959,0,1,0-9.777,8.4a27.961,27.961,0,0,0,27.96,27.96" transform="translate(777.503 415.526)" fill="#d6d6d6"/>
    <g id="Group_43" data-name="Group 43" transform="translate(505.451 -497.437)">
      <path id="Path_58" data-name="Path 58" d="M277.005,924.877l-.332,2.9,1.433.324,1.284-9.369a48.042,48.042,0,0,0,22.034.058l1.157,9.154,1.4-.114c-.053-.842-.1-1.633-.161-2.581a21.85,21.85,0,0,1,7.611,2.135c.914.5.912,1.151-.113,1.546a30.639,30.639,0,0,1-5.959,1.845,87.633,87.633,0,0,1-32.114-.41,23.87,23.87,0,0,1-3.86-1.325c-.354-.14-.877-.622-.83-.84a1.527,1.527,0,0,1,.864-.967C271.822,926.432,274.254,925.718,277.005,924.877Z" transform="translate(0 -8.563)"/>
      <path id="Path_59" data-name="Path 59" d="M322.4,970.8c0,2.678.108,5.245-.067,7.793a3.165,3.165,0,0,1-1.419,2.109c-3.952,2.344-8.067,3.536-12.485,1.132a4.541,4.541,0,0,0-4.543.039c-4.447,2.413-8.528,1.089-12.462-1.255a2.865,2.865,0,0,1-1.282-1.926c-.149-2.593-.06-5.2-.06-7.894A97.158,97.158,0,0,0,322.4,970.8ZM294.7,976.287a5.475,5.475,0,0,0,7.67,1.2c.646-.556.616-.99.053-1.568A5.553,5.553,0,0,0,294.7,976.287Zm18.383,2.6c1.255-.582,2.46-1.063,3.583-1.689.643-.359.6-.911.029-1.458-1.691-1.614-5.555-1.565-7.218.088-.617.614-.588,1.184.111,1.549C310.656,977.939,311.8,978.348,313.082,978.89Z" transform="translate(-15.963 -47.203)"/>
      <path id="Path_60" data-name="Path 60" d="M313.189,908.554A40.388,40.388,0,0,1,333.8,908.5C331.715,910.3,317.274,910.535,313.189,908.554Z" transform="translate(-33.126)"/>
    </g>
  </g>
</svg>
