<svg xmlns="http://www.w3.org/2000/svg" width="55.921" height="55.918" viewBox="0 0 55.921 55.918">
  <g id="Group_145" data-name="Group 145" transform="translate(-767.726 -474.973)">
    <path id="Path_79" data-name="Path 79" d="M18.183,36.365A27.959,27.959,0,1,0-9.777,8.4a27.961,27.961,0,0,0,27.96,27.96" transform="translate(777.503 494.526)" fill="#d89223"/>
    <g id="Group_89" data-name="Group 89" transform="translate(1743.765 -525.538)">
      <path id="Path_80" data-name="Path 80" d="M-789.342,1045.789a6.316,6.316,0,0,0,.259-4.361c-.065.746-.109,1.548-.214,2.342a3.7,3.7,0,0,1-.345,1.259,5.542,5.542,0,0,0-.492,2.549c-.043,1.274-.009,2.551-.011,3.826,0,.452-.025.9-.014,1.355a2.07,2.07,0,0,0,.118.553,10.688,10.688,0,0,1,.339,1.022.763.763,0,0,1-.613,1,10.938,10.938,0,0,1-3.613.2,3.118,3.118,0,0,1-.377-.079c-.332-.094-.659-.216-.708-.616a.95.95,0,0,1,.49-.942c.172-.111.367-.184.548-.282a1.057,1.057,0,0,0,.653-1.125c-.143-.94-.3-1.879-.5-2.81-.233-1.12-.54-2.226-.754-3.349-.112-.59-.083-1.207-.14-1.809-.055-.571-.139-1.139-.21-1.708l-.115.008v1.674l-.082.014-1.37-2.526c1.277.177,2.013-.617,2.8-1.328a16.142,16.142,0,0,1,3.1-2.151,4.019,4.019,0,0,0,1.215-1.1,7.238,7.238,0,0,0-.007-8.2.4.4,0,0,1-.089-.28,7.045,7.045,0,0,1,1.123.381,11.233,11.233,0,0,0,5.211,1.229c1.35.025,2.7.169,4.045.3a5.058,5.058,0,0,1,3.1,1.585,15.045,15.045,0,0,1,2.622,3.527,13.082,13.082,0,0,1,.778,1.464,6.408,6.408,0,0,1,.529,1.876c.1,1.622.092,3.25.1,4.876,0,.863-.062,1.726-.064,2.59a2.108,2.108,0,0,0,.172.781,2.1,2.1,0,0,1-.009,1.689c-.148.351-.294.7-.456,1.091a2.856,2.856,0,0,1-.285-2.324,3.8,3.8,0,0,0,.131-1.359c-.1-1.854-.163-3.71-.244-5.566a2.176,2.176,0,0,0-.169-.8,9.811,9.811,0,0,0-.137,1.1,21.085,21.085,0,0,1-.633,5.012,8.726,8.726,0,0,0-.043,3.115c.12,1.192.234,2.384.359,3.575.037.357.134.71.145,1.067.02.651-.233.986-.878,1.042a23.5,23.5,0,0,1-2.887.108c-.792-.03-1.035-.53-.659-1.229a3.809,3.809,0,0,1,.665-.846,1.33,1.33,0,0,0,.382-1.366,7.466,7.466,0,0,0-1.76-3.264c-.435-.491-.848-1-1.265-1.5A15.863,15.863,0,0,1-789.342,1045.789Z" transform="translate(-159.834 -12.465)" fill="#fff"/>
      <path id="Path_81" data-name="Path 81" d="M-916.681,1020.677a17.465,17.465,0,0,0-1.576,4.941c-.012.112-.067.276-.149.313-.49.219-.993.408-1.568.638.063-.353.128-.613.152-.876a2.031,2.031,0,0,0-.075-.785c-.114.438-.2.885-.348,1.311a1.57,1.57,0,0,1-1.965.957,3.657,3.657,0,0,1-.838-.463,1.158,1.158,0,0,0-1.516.042c-.676.463-1.4.859-2.1,1.279a1.43,1.43,0,0,1-.293.089,5.2,5.2,0,0,1,.416-2.7,29.6,29.6,0,0,0,1.187-2.968,12.82,12.82,0,0,1,3.875-5.637,2.33,2.33,0,0,1,.956-.44,7.232,7.232,0,0,1,2.767-.04,1.246,1.246,0,0,0,.556-.042,17.348,17.348,0,0,1,4.141-.891,2.425,2.425,0,0,1,1.821.7,6.67,6.67,0,0,1,1.673,7.275,4.785,4.785,0,0,1-2.176,2.414c-1.1.638-2.1,1.437-3.146,2.165-.391.272-.768.569-1.18.8a.746.746,0,0,1-1.1-.275,3.6,3.6,0,0,1-.531-1.872,11.488,11.488,0,0,1,.491-3.544C-917.016,1022.282-916.858,1021.478-916.681,1020.677Zm-5.56,1.223-.007.179c.2.073.454.26.58.2a2.674,2.674,0,0,0,.6-.6l-.11-.147Z" transform="translate(-39.466 0)" fill="#fff"/>
      <path id="Path_82" data-name="Path 82" d="M-966.337,1169.81c-2.175.126-3.21-.307-3.428-1.475a2.958,2.958,0,0,0,3.021.842,7.536,7.536,0,0,0,4.288-1.971l.515.249c-.014.03-.018.059-.034.068a1.488,1.488,0,0,0-.81,1.454,10.139,10.139,0,0,0,.266,2.8,3.632,3.632,0,0,0,.295.667.736.736,0,0,0,.864.349c.353-.058.474-.328.535-.63a5.4,5.4,0,0,0,.06-.576c.026-.279.188-.363.451-.345a.926.926,0,0,1,.941.852,3.241,3.241,0,0,1-.478,2.183,2.306,2.306,0,0,1-2.567.881,4.232,4.232,0,0,1-3.176-2.87C-965.906,1171.488-966.092,1170.643-966.337,1169.81Z" transform="translate(0 -140.027)" fill="#fff"/>
      <path id="Path_83" data-name="Path 83" d="M-805.56,1243.931c-.053.01-.068.017-.078.013-.862-.315-.89-.344-.579-1.224a2.123,2.123,0,0,0-.208-1.922,14.7,14.7,0,0,1-.735-1.312,2.032,2.032,0,0,1-.133-1.469,11,11,0,0,1,1.782-3.389c.076.228.171.452.223.686.162.729.322,1.458.455,2.193.06.333.031.683.089,1.017.068.389.18.771.285,1.153.191.692.419,1.374.577,2.073a.828.828,0,0,1-.422.959A2.678,2.678,0,0,0-805.56,1243.931Z" transform="translate(-149.793 -202.219)" fill="#fff"/>
      <path id="Path_84" data-name="Path 84" d="M-634.8,1272.672c.75,0,1.484-.031,2.212.019.214.015.413.256.62.393.3.2.325.412.193.77-.425,1.158-.789,2.339-1.161,3.517-.068.216-.045.46-.093.685a.76.76,0,0,1-.8.685c-.722.011-1.445.01-2.166-.025a.642.642,0,0,1-.491-.274.685.685,0,0,1,.149-.552,6.427,6.427,0,0,0,1.522-5.078A.788.788,0,0,1-634.8,1272.672Z" transform="translate(-307.4 -237.303)" fill="#fff"/>
    </g>
  </g>
</svg>
