<svg xmlns="http://www.w3.org/2000/svg" width="55.921" height="55.918" viewBox="0 0 55.921 55.918">
  <g id="Group_146" data-name="Group 146" transform="translate(-687.726 -474.973)">
    <path id="Path_69" data-name="Path 69" d="M18.183,36.365A27.959,27.959,0,1,0-9.777,8.4a27.961,27.961,0,0,0,27.96,27.96" transform="translate(697.503 494.526)" fill="#62b1ae"/>
    <g id="Group_88" data-name="Group 88" transform="translate(171.697 429.724)">
      <g id="Group_82" data-name="Group 82">
        <rect id="Rectangle_18" data-name="Rectangle 18" width="25.273" height="3.118" rx="1.559" transform="translate(531.469 57.276)" fill="#fff"/>
      </g>
      <g id="Group_83" data-name="Group 83">
        <rect id="Rectangle_19" data-name="Rectangle 19" width="25.273" height="3.118" rx="1.559" transform="translate(531.303 87.786)" fill="#fff"/>
      </g>
      <g id="Group_84" data-name="Group 84">
        <path id="Path_75" data-name="Path 75" d="M538.286,66.171s4.739,3.284,11.639-.208c0,0-5.32,4.074-6.069,7.981C543.856,73.944,543.94,70.7,538.286,66.171Z" fill="#fff"/>
      </g>
      <g id="Group_85" data-name="Group 85">
        <path id="Path_76" data-name="Path 76" d="M543.815,76.646a7.946,7.946,0,0,0,3.866,4.739s5.362,4.7,4.364,5.154l-16.46.125a15.464,15.464,0,0,1,5.9-5.82A6.227,6.227,0,0,0,543.815,76.646Z" fill="#fff"/>
      </g>
      <g id="Group_86" data-name="Group 86">
        <path id="Path_77" data-name="Path 77" d="M533.047,86.137a7.444,7.444,0,0,1,1.327-4.912c5.285-5.1,6.541-6.731,6.84-7.225l.007-.07c-.589-.716-4.22-4.006-7.5-6.884-1.154-1.477-.795-5.278-.75-5.707l.994.1c-.151,1.466-.155,4.1.481,4.921a91.441,91.441,0,0,1,7.514,6.929l.082-.009.2.354c.188.4.447.958-7.14,8.273h0a6.735,6.735,0,0,0-1.054,4.2Z" fill="#fff"/>
      </g>
      <g id="Group_87" data-name="Group 87">
        <path id="Path_78" data-name="Path 78" d="M554.886,86.1l-1-.027a6.519,6.519,0,0,0-1.084-4.232c-7.555-7.282-7.3-7.836-7.107-8.24l.151-.323.113,0c.566-.7,2.31-2.388,7.6-7.023.571-.753.566-3.385.414-4.851l.994-.1c.045.428.4,4.23-.683,5.636-3.347,2.945-6.98,6.237-7.57,6.954l.008.071c.3.5,1.555,2.126,6.807,7.191A7.38,7.38,0,0,1,554.886,86.1Z" fill="#fff"/>
      </g>
    </g>
  </g>
</svg>
