<svg xmlns="http://www.w3.org/2000/svg" width="55.921" height="55.918" viewBox="0 0 55.921 55.918">
  <g id="Group_157" data-name="Group 157" transform="translate(-930.726 -577.973)">
    <g id="Group_155" data-name="Group 155">
      <path id="Path_105" data-name="Path 105" d="M18.183,36.365A27.959,27.959,0,1,0-9.777,8.4a27.961,27.961,0,0,0,27.96,27.96" transform="translate(940.503 597.526)" fill="#f2f2f2"/>
      <g id="Group_154" data-name="Group 154" transform="translate(502.632 567.759)">
        <path id="Path_146" data-name="Path 146" d="M465.863,22.9s-.444-2-2.661.444l-1.773-1.552S458.658,24.34,458.547,25a5.487,5.487,0,0,0,.111,1.663L440.7,51.719l2.217,3.88,17.4-26.936.887.887s-1,1.884,0,3.1,8.314,13.191,8.314,13.191l3.214-11.861Z" fill="#acc945"/>
        <g id="Group_153" data-name="Group 153">
          <path id="Path_147" data-name="Path 147" d="M464.643,53.16c-.313-.834-11.522-17.768-13.024-20.034a11.312,11.312,0,0,0-.277-4.685l-3.991-6.872-.554,2.439c5.321,6.983.665,9.089.665,9.089l-3.547-4.877-1.441,1.219s2.846,4.54,3.47,5.726a22.409,22.409,0,0,0,3.624-.073l13.08,21.061S464.976,54.047,464.643,53.16Z" fill="#acc945"/>
          <path id="Path_148" data-name="Path 148" d="M446.021,35.425c.092.092.047-.024-.077-.26C445.77,35.171,445.822,35.226,446.021,35.425Z" fill="#acc945"/>
          <path id="Path_149" data-name="Path 149" d="M446.354,20.017l-1.108-.776.443,4.766Z" fill="#acc945"/>
          <path id="Path_150" data-name="Path 150" d="M440.368,25.67l1.33,2.217,2.217-.443Z" fill="#acc945"/>
        </g>
      </g>
    </g>
  </g>
</svg>
