<svg xmlns="http://www.w3.org/2000/svg" width="55.921" height="55.918" viewBox="0 0 55.921 55.918">
  <g id="Group_54" data-name="Group 54" transform="translate(-1077.837 -231.331)">
    <path id="Path_1" data-name="Path 1" d="M18.183,36.365A27.959,27.959,0,1,0-9.777,8.4a27.961,27.961,0,0,0,27.96,27.96" transform="translate(1087.614 250.884)" fill="#fff"/>
    <path id="Path_2" data-name="Path 2" d="M18.183,36.365A27.959,27.959,0,1,0-9.777,8.4,27.961,27.961,0,0,0,18.183,36.365Z" transform="translate(1087.614 250.884)" fill="none"/>
    <path id="Path_15" data-name="Path 15" d="M51.751,3.692h-19V-14.551h19ZM34.492,2.016H50.007V-12.878H34.492Z" transform="translate(1067.827 260.544)" fill="#2b2e34"/>
    <path id="Path_16" data-name="Path 16" d="M48.761,6.612H29.755V-11.631H48.761ZM31.5,4.939H47.017V-9.955H31.5Z" transform="translate(1062.261 265.975)" fill="#2b2e34"/>
  </g>
</svg>
