<svg xmlns="http://www.w3.org/2000/svg" width="55.921" height="55.918" viewBox="0 0 55.921 55.918">
  <g id="Group_159" data-name="Group 159" transform="translate(-771 -231)">
    <path id="Path_17" data-name="Path 17" d="M18.183,36.365A27.959,27.959,0,1,0-9.777,8.4a27.961,27.961,0,0,0,27.96,27.96" transform="translate(780.777 250.553)" fill="#5f3cbc"/>
    <g id="Group_158" data-name="Group 158" transform="translate(1788.341 -877.607)">
      <path id="Path_152" data-name="Path 152" d="M-989.713,1154.077a3.074,3.074,0,0,1-1.207-.26,37.626,37.626,0,0,1-9-5.543c-3.736-3.14-5.93-6.309-6.9-9.972-.141-.531-.248-1.061-.352-1.573-.046-.227-.092-.454-.141-.681l-.028-.131V1133.6l.1-.236c.027-.064.059-.128.091-.192l0,0a9.87,9.87,0,0,1,6.65-8.02c.409-.152.81-.26,1.2-.365.162-.044.325-.087.486-.134l.16-.046h2.659l.252.128c.039.02.077.041.115.064a9.637,9.637,0,0,1,6.022,3.725,9.867,9.867,0,0,1,4.791-3.423c.349-.117.7-.217,1.032-.315l.444-.13.164-.049h2.566l.175.056c.073.023.145.049.217.075s.156.056.189.063a10.092,10.092,0,0,1,8.09,9.783,15.238,15.238,0,0,1-4.23,10.485,35.125,35.125,0,0,1-12.7,8.84A2.091,2.091,0,0,1-989.713,1154.077Zm.008-2.458Zm-15.242-15.97c.041.193.08.386.119.58.1.5.2.968.317,1.426.848,3.19,2.733,5.878,6.111,8.717a35.258,35.258,0,0,0,8.428,5.188.792.792,0,0,0,.234.06,32.764,32.764,0,0,0,11.793-8.2,12.861,12.861,0,0,0,3.614-8.812,7.621,7.621,0,0,0-6.107-7.389,3.306,3.306,0,0,1-.551-.157h-1.844l-.3.086c-.328.1-.638.185-.942.287a7.676,7.676,0,0,0-4.443,3.835l-.872,1.606-1.113-1.441c-.034-.044-.067-.084-.1-.122a3.374,3.374,0,0,1-.293-.4,7.438,7.438,0,0,0-5.288-3.722,1.557,1.557,0,0,1-.4-.13h-1.745l-.368.1c-.352.094-.684.184-.99.3a7.494,7.494,0,0,0-5.123,6.223,1.91,1.91,0,0,1-.143.463Z" transform="translate(0 0)" fill="#fff" stroke="#fff" stroke-width="1"/>
    </g>
  </g>
</svg>
