<svg xmlns="http://www.w3.org/2000/svg" width="56.356" height="55.918" viewBox="0 0 56.356 55.918">
  <g id="Group_22" data-name="Group 22" transform="translate(-1156.29 -230.973)">
    <path id="Path_38" data-name="Path 38" d="M18.183,36.365A27.959,27.959,0,1,0-9.777,8.4a27.961,27.961,0,0,0,27.96,27.96" transform="translate(1166.503 250.526)" fill="#ffd35d"/>
    <g id="Group_9" data-name="Group 9">
      <path id="Path_22" data-name="Path 22" d="M18.183,36.365A27.959,27.959,0,1,0-9.777,8.4a27.961,27.961,0,0,0,27.96,27.96" transform="translate(1166.067 250.526)" fill="#711412"/>
      <path id="Path_34" data-name="Path 34" d="M2866.836-755.165c.106.106,1.817,2.535,1.727,3.671.1.455.149,1.035.235,1.529.009.053.115.113.185.129,3.382.795,5.209,2.786,5.615,6.166a25.538,25.538,0,0,0,3.029,9.389,13.278,13.278,0,0,1,1.6,8.054,7.862,7.862,0,0,1-6.042,6.923,7.048,7.048,0,0,1-4.26-.4,1.673,1.673,0,0,0-1.353-.033,7.384,7.384,0,0,1-9.461-3.515,9.328,9.328,0,0,1-.993-5.162,14.766,14.766,0,0,1,1.849-6.237,25.152,25.152,0,0,0,2.89-9.334,6.586,6.586,0,0,1,5.5-5.842.918.918,0,0,0,.135-.049,8.951,8.951,0,0,0-1.238-3.868,2.43,2.43,0,0,0-1.357-1.038.628.628,0,0,1-.462-.784.612.612,0,0,1,.813-.449,4.939,4.939,0,0,1,1.325.58" transform="translate(-1683.093 994.239)" fill="#fff"/>
    </g>
  </g>
</svg>
