<svg xmlns="http://www.w3.org/2000/svg" width="55.921" height="55.918" viewBox="0 0 55.921 55.918">
  <g id="Group_18" data-name="Group 18" transform="translate(-849.217 -230.973)">
    <g id="Group_4" data-name="Group 4" transform="translate(-881 -263)">
      <path id="Path_24" data-name="Path 24" d="M18.183,36.365A27.959,27.959,0,1,0-9.777,8.4a27.959,27.959,0,0,0,27.96,27.96" transform="translate(1739.994 513.526)" fill="#711412"/>
      <path id="Path_25" data-name="Path 25" d="M13.071,12.882A18.106,18.106,0,0,1,8.833,2.558a32.917,32.917,0,0,1-4.89,10.127c.346.249.686.478,1.01.729a8.626,8.626,0,0,1,2.222,2.428,5.606,5.606,0,0,1,.443,4.784,9.669,9.669,0,0,1-1.933,3.309,7.754,7.754,0,0,1-3.478,2.379,6.623,6.623,0,0,1-6.1-.892,7.24,7.24,0,0,1-3.094-7.044,9.1,9.1,0,0,1,1.933-4.764,6.069,6.069,0,0,1,2.511-2A5.386,5.386,0,0,1,.971,11.4a15.077,15.077,0,0,1,1.6.561.31.31,0,0,0,.443-.114A26.724,26.724,0,0,0,5.421,7.861,34.02,34.02,0,0,0,7.866,1.32c.36-1.378.655-2.774.941-4.17.132-.646.154-1.316.255-1.97.08-.538.189-1.072.315-1.6A.588.588,0,0,1,10.12-6.9a.653.653,0,0,1,.443.809c-.063.315-.12.629-.189.981.42-.129.789-.255,1.167-.357a8.931,8.931,0,0,1,5.073.02,8.691,8.691,0,0,1,3.017,1.667A17.312,17.312,0,0,1,23.512.974c.555.961,1.052,1.956,1.561,2.946.189.369.332.764.512,1.181-.36.04-.7.086-1.035.114a27.29,27.29,0,0,1-4.324.051A15.5,15.5,0,0,1,14.6,3.945a8.343,8.343,0,0,1-2.868-2.193,9.449,9.449,0,0,1-1.67-2.886.2.2,0,0,0-.1-.12c0,.618-.017,1.233,0,1.847a23.28,23.28,0,0,0,.543,4.444,15.687,15.687,0,0,0,2.056,5.088c.455.7,1.007,1.336,1.513,2,.089.12.172.123.306.057a8.429,8.429,0,0,1,3.523-.909,5.331,5.331,0,0,1,4.027,1.644,8.76,8.76,0,0,1,2.176,4.021,8.366,8.366,0,0,1-.089,4.75,7.008,7.008,0,0,1-2.033,3.166,6.907,6.907,0,0,1-4.793,1.816,6.65,6.65,0,0,1-3.841-1.264,9.379,9.379,0,0,1-3.7-5.531,5.426,5.426,0,0,1,.512-4.124,7.192,7.192,0,0,1,2-2.219c.292-.22.595-.426.909-.652" transform="translate(1748.898 512.053)" fill="#fff"/>
    </g>
  </g>
</svg>
