<svg height="55.918" viewBox="0 0 55.918 55.918" width="55.918" xmlns="http://www.w3.org/2000/svg"><g transform="translate(-243.624 -60.664)"><path d="m271.584 116.582a27.959 27.959 0 1 0 -27.96-27.965 27.958 27.958 0 0 0 27.96 27.965" fill="#25fd26"/><g fill="#fff"><path d="m268.1 71.811s18.958 0 20.46 23.088l-19.709.657s4.127-9.667-.751-23.745z"/><path d="m282.715 103.408-22.835-.288-2.9-5.457.887.051c13.629.776 28.377.97 29.472-.05l.687.726z"/><path d="m257.08 102.989-4.044-6.915 5.61.782z"/><path d="m254.012 104.444 1.972-4.273 1.972 3.122z"/></g></g></svg>