<svg xmlns="http://www.w3.org/2000/svg" width="55.918" height="55.918" viewBox="0 0 55.918 55.918">
  <g id="Group_6" data-name="Group 6" transform="translate(-889.88 -512)">
    <g id="Group_5" data-name="Group 5">
      <g id="Group_4" data-name="Group 4">
        <path id="Path_17" data-name="Path 17" d="M271.584,116.582a27.959,27.959,0,1,0-27.96-27.965,27.958,27.958,0,0,0,27.96,27.965" transform="translate(646.256 451.336)" fill="#25fd26"/>
        <path id="Path_4" data-name="Path 4" d="M268.1,71.811s18.958,0,20.46,23.088l-19.709.657S272.978,85.889,268.1,71.811Z" transform="translate(646.256 451.336)" fill="#fff"/>
        <path id="Path_5" data-name="Path 5" d="M282.715,103.408l-22.835-.288-2.9-5.457.887.051c13.629.776,28.377.97,29.472-.05l0,0,.687.726,0,0Z" transform="translate(646.256 451.336)" fill="#fff"/>
        <path id="Path_6" data-name="Path 6" d="M257.08,102.989l-4.044-6.915,5.61.782Z" transform="translate(646.256 451.336)" fill="#fff"/>
        <path id="Path_7" data-name="Path 7" d="M254.012,104.444l1.972-4.273,1.972,3.122Z" transform="translate(646.256 451.336)" fill="#fff"/>
      </g>
    </g>
  </g>
</svg>
