<svg xmlns="http://www.w3.org/2000/svg" width="55.921" height="55.918" viewBox="0 0 55.921 55.918">
  <g id="Group_123" data-name="Group 123" transform="translate(-923.726 -314.973)">
    <path id="Path_41" data-name="Path 41" d="M18.183,36.365A27.959,27.959,0,1,0-9.777,8.4a27.961,27.961,0,0,0,27.96,27.96" transform="translate(933.503 334.526)" fill="#4a515c"/>
    <path id="Path_42" data-name="Path 42" d="M92.737-91.226h0Z" transform="translate(835.263 439.368)" fill="#fff"/>
    <rect id="Rectangle_1" data-name="Rectangle 1" width="45.77" height="1.843" transform="translate(928 347.22)" fill="#fff"/>
    <path id="Path_43" data-name="Path 43" d="M158.957-179.117v0Z" transform="translate(780.077 532.367)" fill="#fff"/>
    <rect id="Rectangle_2" data-name="Rectangle 2" width="1.382" height="23.702" transform="translate(938.343 329.549)" fill="#fff"/>
    <path id="Path_44" data-name="Path 44" d="M311.018-179.117v0Z" transform="translate(653.352 532.367)" fill="#fff"/>
    <rect id="Rectangle_3" data-name="Rectangle 3" width="1.382" height="23.702" transform="translate(963.679 329.549)" fill="#fff"/>
    <rect id="Rectangle_4" data-name="Rectangle 4" width="0.922" height="9.399" transform="translate(942.251 338.743)" fill="#fff"/>
    <rect id="Rectangle_5" data-name="Rectangle 5" width="0.922" height="5.921" transform="translate(946.238 342.221)" fill="#fff"/>
    <rect id="Rectangle_6" data-name="Rectangle 6" width="0.922" height="5.717" transform="translate(949.811 343.347)" fill="#fff"/>
    <rect id="Rectangle_7" data-name="Rectangle 7" width="0.922" height="5.821" transform="translate(954.102 343.242)" fill="#fff"/>
    <rect id="Rectangle_8" data-name="Rectangle 8" width="0.922" height="5.612" transform="translate(957.575 342.53)" fill="#fff"/>
    <rect id="Rectangle_9" data-name="Rectangle 9" width="0.922" height="9.399" transform="translate(961.049 339.665)" fill="#fff"/>
    <rect id="Rectangle_10" data-name="Rectangle 10" width="0.922" height="4.291" transform="translate(966.721 343.315)" fill="#fff"/>
    <rect id="Rectangle_11" data-name="Rectangle 11" width="0.922" height="5.108" transform="translate(936.658 343.034)" fill="#fff"/>
    <path id="Path_45" data-name="Path 45" d="M128.1-176.656l-.713-.583c.054-.066,5.4-6.7,5-14.191l-.14-2.656,1.026,2.454c.04.095,4.074,9.524,12.243,9.524,8.536,0,12.08-6.154,12.08-9.449l.915-.076c.911,5.406,3.377,13.872,6.157,13.872.032,0,.065,0,.1,0l.065.919c-.054,0-.11.006-.164.006-3.5,0-5.7-8.069-6.608-12.285-1.257,3.588-5.169,7.939-12.543,7.939-6.526,0-10.558-5.511-12.217-8.388C132.876-182.573,128.312-176.914,128.1-176.656Z" transform="translate(806.386 525.09)" fill="#fff"/>
  </g>
</svg>
