<svg xmlns="http://www.w3.org/2000/svg" width="55.921" height="55.918" viewBox="0 0 55.921 55.918">
  <g id="Group_143" data-name="Group 143" transform="translate(-923.726 -474.973)">
    <g id="Group_126" data-name="Group 126">
      <path id="Path_69" data-name="Path 69" d="M18.183,36.365A27.959,27.959,0,1,0-9.777,8.4a27.961,27.961,0,0,0,27.96,27.96" transform="translate(933.503 494.526)" fill="#5698db"/>
      <path id="Path_86" data-name="Path 86" d="M495.6,549.137l3.956.409-.068-5.388,3.751-2.933,5.047-10.026-1.159-1.091-9.344,9.617.614,3.206Z" transform="translate(457.544 -29.436)" fill="#ebebeb"/>
      <path id="Path_87" data-name="Path 87" d="M489.828,549.137l-3.956.409.068-5.388-3.751-2.933L477.141,531.2l1.159-1.091,9.344,9.617-.614,3.206Z" transform="translate(460.859 -29.436)" fill="#ebebeb"/>
      <path id="Path_88" data-name="Path 88" d="M496.6,519.968l1.773-4.638-.682,4.5,1.5-.818.136-3.615v-2.251l-1.023.614-2.046,2.455Z" transform="translate(457.425 -26.39)" fill="#fff"/>
      <path id="Path_89" data-name="Path 89" d="M485.721,526.617l-2.319-2.183-.887-1.705-.136-2.183,4.3,2.592.409,2.046-3.206-2.524Z" transform="translate(459.918 -27.719)" fill="#fff"/>
      <path id="Path_90" data-name="Path 90" d="M492.532,534.259l.887-4.433-1.91,4.092-.068-3.41,2.592-2.728.273,2.728-.136,1.978-.818,1.3Z" transform="translate(458.291 -29.018)" fill="#fff"/>
      <path id="Path_91" data-name="Path 91" d="M496.927,535.031l.818-4.092,1.5,3.206-.682,1.228-.682-1.978-.273,2.114" transform="translate(457.305 -29.585)" fill="#fff"/>
      <path id="Path_92" data-name="Path 92" d="M500.528,530.279l2.387-.273,2.114-4.638-3.683.136-1.842,3.41,3-2.046Z" transform="translate(456.842 -28.585)" fill="#fff"/>
      <path id="Path_93" data-name="Path 93" d="M507.4,526.613l3-1.91-1.569,3.888-.136-1.842Z" transform="translate(455.424 -28.465)" fill="#fff"/>
      <path id="Path_94" data-name="Path 94" d="M502.086,522.333l1.091.2,1.228-3.547-.75-.273-3.069,3.069,2.046-1.159Z" transform="translate(456.648 -27.39)" fill="#fff"/>
      <path id="Path_95" data-name="Path 95" d="M502.917,517.059l.75-.341-.409-3.82-1.842,4.092,1.228-1.159Z" transform="translate(456.499 -26.345)" fill="#fff"/>
      <path id="Path_96" data-name="Path 96" d="M493.561,515.5l.614-.546-2.319-3.888.068,5.115.614-.477-.136-2.319Z" transform="translate(458.216 -26.017)" fill="#fff"/>
      <path id="Path_97" data-name="Path 97" d="M492.771,521.318l1.091-2.933.477,3.547-.818-1.228Z" transform="translate(458.052 -27.331)" fill="#fff"/>
      <path id="Path_98" data-name="Path 98" d="M492.643,524.742l-2.865-2.865,1.023,4.57.068-1.978Z" transform="translate(458.589 -27.958)" fill="#fff"/>
      <path id="Path_99" data-name="Path 99" d="M496.179,526.419l1.364-2.8-.136,3.478-.477-1.159Z" transform="translate(457.44 -28.271)" fill="#fff"/>
      <path id="Path_100" data-name="Path 100" d="M489.547,531.757l-.887-3.479-.372,2.607-.021.143-.153,1.069.75-1.023Z" transform="translate(458.888 -29.107)" fill="#fff"/>
      <path id="Path_101" data-name="Path 101" d="M482.274,531.047l-.477-3.683,3.069,3.274-2.114-1.159Z" transform="translate(460.023 -28.943)" fill="#fff"/>
      <path id="Path_102" data-name="Path 102" d="M480.62,525l-1.023-2.319-2.455-2.046.477,3.547,1.773,2.592-.955-3.479Z" transform="translate(460.859 -27.734)" fill="#fff"/>
      <path id="Path_103" data-name="Path 103" d="M488.06,518.845l-1.773-5.115,4.024,3.069-1.023.546-1.569-1.773Z" transform="translate(459.216 -26.494)" fill="#fff"/>
      <path id="Path_104" data-name="Path 104" d="M485.271,519.306l-1.978-2.251.887,3Z" transform="translate(459.754 -27.092)" fill="#fff"/>
    </g>
  </g>
</svg>
