<svg xmlns="http://www.w3.org/2000/svg" width="55.921" height="55.918" viewBox="0 0 55.921 55.918">
  <g id="Group_117" data-name="Group 117" transform="translate(-1224.192 -230.973)">
    <g id="Group_116" data-name="Group 116">
      <g id="Group_3" data-name="Group 3" transform="translate(-442 -263)">
        <path id="Path_26" data-name="Path 26" d="M18.183,36.365A27.959,27.959,0,1,0-9.777,8.4a27.961,27.961,0,0,0,27.96,27.96" transform="translate(1675.969 513.526)" fill="#2e6fce"/>
        <path id="Path_27" data-name="Path 27" d="M8.57,22.588q1.733-3.938,3.469-7.876c-.117-.051-.235-.1-.355-.157-.529,1.018-1.112,2.013-1.581,3.054-.881,1.959-1.293,4.121-2.848,5.785-.252.269-.506.538-.758.8l-.243-.1q1.283-2.968,2.568-5.94l-.269-.12L5.73,21.347c-.077-.046-.154-.092-.235-.137Q6.7,18.781,7.909,16.351c-.08-.034-.16-.069-.24-.1l-.726,1.387-.183-.043.172-1.021-.14-.06q-.635,1.467-1.27,2.931c-.109-.02-.217-.043-.323-.066,1.184-2.851.08-5.665.017-8.5H4.932c0,1.69-.054,3.383.017,5.07a5.54,5.54,0,0,1-.927,3.932l.206-4.2c-.077-.009-.154-.014-.232-.02Q3.332,17.2,2.67,18.724l-.2-.08.309-3.772c-.083-.009-.169-.014-.252-.023l-2.574,2.9-.263-.2C.234,16.508.831,15.49,1.3,14.42A5.115,5.115,0,0,0,1.7,10.905c-3,3.666-3.12,3.781-4.627,4.324a16.167,16.167,0,0,0,2.76-7.1c-2.677,3.417-2.7,3.437-4.215,3.661,1.985-2.2,2.271-4.767,2.425-7.367Q-3.117,7.1-4.271,9.787l-.337-.106c1.287-3.949.566-8.225,2.3-12.088A12.084,12.084,0,0,1-.264-5.7a4.888,4.888,0,0,1,7.619.28A11.518,11.518,0,0,1,9.785,3.061c-.1,1.61-.172,3.229-.112,4.842a14.979,14.979,0,0,0,.655,2.748c1.479-1.413,2.765-2.574,3.949-3.821a1.381,1.381,0,0,0,.209-1.284,8.662,8.662,0,0,1,.649-9.134c.355-.532.689-1.072,1.021-1.616.043-.071.006-.189.006-.435l-2.677.578c-.578-1.167.315-1.97.7-3.051-.486.237-.972.472-1.5.732-.006-1.447,1.2-1.93,2.482-2.608l-1.516-.24c.663-1.184,1.193-1.281,3.638-.629-.34-.412-.592-.715-1.032-1.25,1.57-.006,2.957-.206,4.2.377,1.361.638,1.616,1.979,1.8,3.3.612-.077,1.15-.143,1.684-.212l.206.223q-.892,1.094-1.785,2.185l2.1,1.07c-.718.212-1.13.335-1.433.426a6.593,6.593,0,0,1,.523,1.8,2.294,2.294,0,0,1-.641,1.41c-.186.2-.758.086-1.164.114A2.168,2.168,0,0,0,24,.716a3.128,3.128,0,0,1,2.359,1.647A10.753,10.753,0,0,1,27.1,12.444a9.071,9.071,0,0,1-.592,1.264c-.192.335-.275.921-.961.5-.074-.043-.386.117-.472.249-1.347,2.108-3.478,3.4-5.545,4.77a33.587,33.587,0,0,0-2.966,2.2,7.281,7.281,0,0,0-2.7,5.394,8.926,8.926,0,0,1-.146.887c-1.762-1.1-2.222-3.892-1.49-9.357l-3.56,4.39c-.031-.054-.066-.106-.1-.157" transform="translate(1682.453 514.148)" fill="#fff"/>
      </g>
    </g>
  </g>
</svg>
