<svg xmlns="http://www.w3.org/2000/svg" width="55.921" height="55.918" viewBox="0 0 55.921 55.918">
  <g id="Group_19" data-name="Group 19" transform="translate(-924.141 -230.973)">
    <g id="Group_2" data-name="Group 2" transform="translate(-75 -346)">
      <path id="Path_19" data-name="Path 19" d="M18.183,36.365A27.959,27.959,0,1,0-9.777,8.4a27.961,27.961,0,0,0,27.96,27.96" transform="translate(1008.917 596.526)" fill="#ff3a38"/>
      <path id="Path_21" data-name="Path 21" d="M12.749,18.221V14.368H9.818v2.225H8.385V14.368H5.379v3.1H3.892V2.657c4.773-.366,8.476-3,8.476-6.206C12.369-7,8.068-9.8,2.757-9.8v2.271a10.363,10.363,0,0,1,5.508,1.45,3.423,3.423,0,0,1,1.779,2.528c0,1.71-2.474,3.6-6.151,3.929V-.325A1.251,1.251,0,0,0,2.625-1.564,1.253,1.253,0,0,0,1.356-.325V.35A9.68,9.68,0,0,1-2.751-1.017,3.423,3.423,0,0,1-4.53-3.548c0-1.882,2.994-3.978,7.287-3.978V-9.8h0C-2.551-9.8-6.855-7-6.855-3.548c0,3.143,3.566,5.743,8.211,6.183V25.419a1.255,1.255,0,0,0,1.27,1.238,1.252,1.252,0,0,0,1.267-1.238V19.776H5.379v5.165H8.385V22.17H9.818v2.771h2.931V19.994H9.921V18.221Z" transform="translate(1024.045 596.502)" fill="#fff"/>
    </g>
  </g>
</svg>
