<svg xmlns="http://www.w3.org/2000/svg" width="55.921" height="55.918" viewBox="0 0 55.921 55.918">
  <g id="Group_142" data-name="Group 142" transform="translate(-1003.726 -474.973)">
    <g id="Group_115" data-name="Group 115">
      <path id="Path_105" data-name="Path 105" d="M18.183,36.365A27.959,27.959,0,1,0-9.777,8.4a27.961,27.961,0,0,0,27.96,27.96" transform="translate(1013.503 494.526)" fill="#797979"/>
      <g id="Group_105" data-name="Group 105">
        <g id="Group_104" data-name="Group 104">
          <g id="Group_103" data-name="Group 103">
            <g id="Group_102" data-name="Group 102">
              <g id="Group_98" data-name="Group 98" transform="translate(540.037 146.92)">
                <path id="Path_108" data-name="Path 108" d="M470.963,360.428l19.065,10.42,21.726-5.986V344.245l-3.769,1.995-.886,15.74s-12.637,1.109-15.962,4.212c0,0-11.085-9.089-16.406-8.424Z" fill="#fff"/>
              </g>
              <g id="Group_99" data-name="Group 99" transform="translate(540.037 146.92)">
                <path id="Path_109" data-name="Path 109" d="M473.623,343.358l1.724-.185s4.416-.584,3.564.346-4.18,14.249-4.18,14.249l-3.769,2.66Z" fill="#fff"/>
              </g>
              <path id="Path_110" data-name="Path 110" d="M491.635,366.216l-1-.048.9-18.862s.163-1.766,4.375-2.075,12.472.839,12.472.839v.859s-8.315-1.085-12.283-.859-3.588,1.762-3.588,1.762Z" transform="translate(540.037 146.92)" fill="#fff"/>
              <g id="Group_101" data-name="Group 101" transform="translate(540.037 146.92)">
                <path id="Path_111" data-name="Path 111" d="M491.6,347.841c-2.268-3.505-13.228-3.843-13.324-3.845l.425-.888c.409.009,11.186.245,13.739,4.191Z" fill="#fff"/>
              </g>
            </g>
          </g>
        </g>
      </g>
    </g>
  </g>
</svg>
