<svg xmlns="http://www.w3.org/2000/svg" width="55.921" height="55.918" viewBox="0 0 55.921 55.918">
  <g id="Group_39" data-name="Group 39" transform="translate(-1077.726 -314.973)">
    <path id="Path_49" data-name="Path 49" d="M18.183,36.365A27.959,27.959,0,1,0-9.777,8.4a27.961,27.961,0,0,0,27.96,27.96" transform="translate(1087.503 334.526)" fill="#71d4d8"/>
    <g id="Group_37" data-name="Group 37" transform="translate(544.361 234.185)">
      <path id="Path_48" data-name="Path 48" d="M553.89,106.749a4.6,4.6,0,0,0-2.407.6,5.038,5.038,0,0,0-1.664,1.611,7.35,7.35,0,0,0-.98,2.292,11.211,11.211,0,0,0,0,5.327,7.365,7.365,0,0,0,.98,2.295,5.057,5.057,0,0,0,1.664,1.608,4.6,4.6,0,0,0,2.407.6,4.551,4.551,0,0,0,2.379-.6,5.276,5.276,0,0,0,1.681-1.608,7.254,7.254,0,0,0,.991-2.295,11.2,11.2,0,0,0,0-5.327,7.3,7.3,0,0,0-.991-2.292,5.255,5.255,0,0,0-1.681-1.611A4.55,4.55,0,0,0,553.89,106.749Zm0,3.786a1.237,1.237,0,0,1,1.175.935,6.942,6.942,0,0,1,.363,2.446,6.752,6.752,0,0,1-.363,2.446,1.216,1.216,0,0,1-2.351,0,6.694,6.694,0,0,1-.363-2.446,6.88,6.88,0,0,1,.363-2.446A1.235,1.235,0,0,1,553.89,110.535Zm11.558,10.216a8.265,8.265,0,0,0,1.019.151c.363.036.715.05,1.05.05.3,0,.614-.006.952-.014a7.426,7.426,0,0,0,1.259-.187L558.17,97.064a8.318,8.318,0,0,0-1.022-.148c-.363-.036-.712-.05-1.047-.05-.3,0-.617.006-.952.014a7.075,7.075,0,0,0-1.259.184Zm4.28-24.119a4.607,4.607,0,0,0-2.409.6,5.092,5.092,0,0,0-1.664,1.611,7.345,7.345,0,0,0-.977,2.292,11.216,11.216,0,0,0,0,5.33,7.373,7.373,0,0,0,.977,2.292,5.066,5.066,0,0,0,1.667,1.608,4.591,4.591,0,0,0,2.407.6,4.533,4.533,0,0,0,2.376-.6,5.189,5.189,0,0,0,1.681-1.608,7.272,7.272,0,0,0,.994-2.292,11.22,11.22,0,0,0,0-5.33,7.244,7.244,0,0,0-.994-2.292,5.227,5.227,0,0,0-1.681-1.611A4.532,4.532,0,0,0,569.728,96.631Zm0,3.786a1.24,1.24,0,0,1,1.175.935,6.941,6.941,0,0,1,.363,2.446,6.751,6.751,0,0,1-.363,2.446,1.215,1.215,0,0,1-2.351,0,6.687,6.687,0,0,1-.366-2.446,6.874,6.874,0,0,1,.366-2.446A1.233,1.233,0,0,1,569.728,100.417Z" transform="translate(0)" fill="#fff"/>
    </g>
  </g>
</svg>
