<svg xmlns="http://www.w3.org/2000/svg" width="55.921" height="55.918" viewBox="0 0 55.921 55.918">
  <g id="Group_57" data-name="Group 57" transform="translate(-1159.726 -398.973)">
    <path id="Path_71" data-name="Path 71" d="M18.183,36.365A27.959,27.959,0,1,0-9.777,8.4a27.961,27.961,0,0,0,27.96,27.96" transform="translate(1169.503 418.526)" fill="#797979"/>
    <path id="Path_74" data-name="Path 74" d="M-5178.971-1052.509c-.211-.318-.408-.625-.615-.924a.2.2,0,0,0-.158-.06c-.363.023-.729.056-1.09.086-.383.031-.766.061-1.146.095-.354.031-.707.069-1.062.1s-.719.054-1.078.083c-.27.022-.541.051-.812.069-.045,0-.127-.028-.135-.058a1.464,1.464,0,0,1-.02-.308c0-.009.057-.022.088-.025l1.572-.131q1.2-.1,2.4-.2c.363-.031.727-.064,1.09-.1a.274.274,0,0,0,.059-.023.28.28,0,0,0-.018-.085c-.168-.36-.357-.713-.506-1.083-.078-.2-.23-.2-.367-.226-.469-.1-.941-.195-1.412-.287-.363-.071-.727-.135-1.088-.208-.387-.078-.775-.163-1.174-.248a1.677,1.677,0,0,1,.053-.288.138.138,0,0,1,.119-.072c.242.039.48.09.723.139s.506.106.76.159c.361.075.723.153,1.084.225.244.049.49.093.736.139.092.018.184.038.3.063-.01-.073-.012-.12-.02-.165-.092-.417-.193-.832-.277-1.251a6.619,6.619,0,0,1-.1-1.689,12.815,12.815,0,0,1,.18-1.667,8.624,8.624,0,0,1,.957-2.638,3.7,3.7,0,0,0,.551-1.922c-.018-.58-.068-1.159-.1-1.738a14.783,14.783,0,0,1,.063-2.895,16.493,16.493,0,0,1,.777-3.059c.094-.276.209-.543.316-.813a.966.966,0,0,1,.053-.087c.164.17.326.329.479.5q1.1,1.273,2.186,2.551c.42.488.84.974,1.252,1.466a.95.95,0,0,0,.623.385.78.78,0,0,0,.338-.048,9.9,9.9,0,0,1,1.734-.424,13.427,13.427,0,0,1,2.688-.23,12.265,12.265,0,0,1,2.217.229c.475.1.949.2,1.42.312a3.889,3.889,0,0,1,.383.128.723.723,0,0,0,.828-.256c.719-.827,1.428-1.664,2.141-2.5l1.652-1.921c.061-.069.119-.14.2-.242a5.256,5.256,0,0,1,.232.525c.238.767.475,1.535.693,2.309a11.294,11.294,0,0,1,.314,3.586c-.033.725-.084,1.449-.125,2.174a3.065,3.065,0,0,0,.281,1.377c.16.381.365.739.541,1.112a9.365,9.365,0,0,1,.652,1.939,9.808,9.808,0,0,1,.207,2.743,7.724,7.724,0,0,1-.293,1.765c-.029.1-.057.2-.086.3s.01.142.105.123c.631-.134,1.264-.271,1.9-.4.441-.09.883-.169,1.322-.254.086-.017.17-.037.256-.058s.141.014.152.116c.008.078.021.156.031.249-.2.043-.395.085-.586.125l-1.072.214c-.371.073-.744.145-1.115.22s-.75.152-1.125.236c-.039.009-.078.065-.1.109-.182.376-.359.755-.539,1.133-.041.083-.02.118.066.125.525.041,1.049.081,1.574.127s1.066.1,1.6.15c.445.039.891.069,1.338.1.18.014.359.033.539.043.076,0,.1.042.084.116,0,0,0,.01,0,.015-.025.278-.025.274-.285.253-.561-.047-1.121-.084-1.682-.133-.609-.052-1.213-.114-1.822-.167-.52-.046-1.039-.088-1.559-.124a.226.226,0,0,0-.178.076c-.191.269-.373.547-.557.823a.967.967,0,0,0-.047.1c.092.041.174.082.258.114.6.228,1.2.452,1.8.682.7.268,1.395.54,2.092.81.246.1.5.186.744.281.08.031.168.056.119.2-.086.24-.082.243-.242.181l-3.137-1.208c-.58-.223-1.164-.443-1.744-.67a.228.228,0,0,0-.289.077c-.359.388-.715.783-1.1,1.141a10.876,10.876,0,0,1-2.25,1.6,11.329,11.329,0,0,1-2.148.9,13.682,13.682,0,0,1-1.336.317,12.763,12.763,0,0,1-1.477.222,14.171,14.171,0,0,1-1.746.019,13.625,13.625,0,0,1-1.7-.2,12.082,12.082,0,0,1-2.74-.818,12.042,12.042,0,0,1-2.529-1.5,11.156,11.156,0,0,1-1.725-1.665.243.243,0,0,0-.318-.089q-1.523.593-3.045,1.177c-.617.237-1.234.47-1.85.709-.1.037-.15.018-.172-.093a.31.31,0,0,0-.018-.057c-.059-.177-.051-.185.105-.246.561-.214,1.119-.432,1.68-.646s1.1-.416,1.643-.624l1.471-.564A.63.63,0,0,0-5178.971-1052.509Z" transform="translate(6357.163 1487.58)" fill="#fff"/>
  </g>
</svg>
