<svg xmlns="http://www.w3.org/2000/svg" width="55.921" height="55.918" viewBox="0 0 55.921 55.918">
  <g id="Group_13" data-name="Group 13" transform="translate(-848.726 -314.973)">
    <path id="Path_41" data-name="Path 41" d="M18.183,36.365A27.959,27.959,0,1,0-9.777,8.4a27.961,27.961,0,0,0,27.96,27.96" transform="translate(858.503 334.526)" fill="#0f6e0c"/>
    <path id="Path_40" data-name="Path 40" d="M-1724.587-325.953a13.019,13.019,0,0,1,.463,5.434l-.557.077c-.066-.145-.13-.29-.185-.439-.4-1.082-.747-2.189-1.21-3.244a5.056,5.056,0,0,0-.7-1.057l-.51.182c.152,7.521.3,15.044.458,22.622a.163.163,0,0,1-.163.166h-3.2a.163.163,0,0,1-.162-.179c.126-1.292.262-2.57.363-3.851.035-.447-.048-.9-.045-1.354,0-.406.042-.812.08-1.217a6.014,6.014,0,0,0,.1-.669c-.026-1.2-.125-2.4-.1-3.59.023-.99.138-1.978.228-2.967.025-.272.049-.718.053-.992.017-1.248.039-2.5.05-3.745.007-.782-.014-1.564,0-2.345.007-.384.1-.769.09-1.151a2.859,2.859,0,0,0-.177-.71.164.164,0,0,0-.279-.058c-1.267,1.427-1.463,3.171-2.139,4.683a.165.165,0,0,1-.307-.021,11,11,0,0,1,.242-5.595.164.164,0,0,0-.233-.182,6.99,6.99,0,0,0-2.542,2.4c-.624.865-1.2,1.763-1.881,2.781a.164.164,0,0,1-.3-.078,6.966,6.966,0,0,1,.818-3.724,28.09,28.09,0,0,1,2.114-3.192.164.164,0,0,0-.2-.242,26.279,26.279,0,0,0-6.466,4.482.162.162,0,0,1-.268-.085c-.192-.983.425-1.526.856-2.064a21.465,21.465,0,0,1,4.7-4.438.162.162,0,0,0-.1-.3,22.289,22.289,0,0,0-5.09,1.338.163.163,0,0,1-.186-.064h0a.164.164,0,0,1,0-.188,2.889,2.889,0,0,1,.511-.637,13.9,13.9,0,0,1,5.992-3.027,3.688,3.688,0,0,1,1.01-.084.974.974,0,0,0,1.05-.488c.462-.693,1.188-.567,1.845-.333.511.182.721.04.989-.42.247-.422.734-.987,1.1-.977s.826.593,1.065,1.024.462.557.924.416c.851-.259,1.68-.377,2.229.59a.53.53,0,0,0,.446.15,6.621,6.621,0,0,1,4.087.836,36.681,36.681,0,0,1,3.675,2.4.476.476,0,0,1,.13.16.163.163,0,0,1-.18.243,20.351,20.351,0,0,0-5.4-1.174.163.163,0,0,0-.086.3c.083.056.168.11.256.158a16.547,16.547,0,0,1,5.332,4.89,2.238,2.238,0,0,1,.311.722l-.485.33c-.393-.3-.783-.613-1.2-.885q-2.3-1.507-4.628-2.959a.815.815,0,0,0-.521-.071.163.163,0,0,0-.095.279,9.71,9.71,0,0,1,3.036,6.484.164.164,0,0,1-.3.1,25.893,25.893,0,0,0-1.839-2.561,6.117,6.117,0,0,0-2.666-2.1A.164.164,0,0,0-1724.587-325.953Z" transform="translate(2605.189 661.492)" fill="#fff"/>
  </g>
</svg>
