<svg xmlns="http://www.w3.org/2000/svg" width="55.921" height="55.918" viewBox="0 0 55.921 55.918">
  <g id="Group_52" data-name="Group 52" transform="translate(-771 -315)">
    <path id="Path_39" data-name="Path 39" d="M18.183,36.365A27.959,27.959,0,1,0-9.777,8.4a27.961,27.961,0,0,0,27.96,27.96" transform="translate(780.777 334.553)" fill="#fff500"/>
    <g id="Group_11" data-name="Group 11" transform="translate(104.656 1088.078)">
      <path id="Path_36" data-name="Path 36" d="M699.756-728.34c-1.739-2.249-5.188.118-7.75-1.469-5.158-4.467-.658-25.845-8.662-16.868,4.848-12.316,4.9-7.007,10.17,2.312L704-724.812C701.859-721.164,700.738-727.1,699.756-728.34Z" transform="translate(0 -5.702)"/>
      <path id="Path_37" data-name="Path 37" d="M693.669-732.421l-.253.456.405,1.013.456.405.608.3a5.581,5.581,0,0,1,.81.051,3.463,3.463,0,0,0,.608.051l11.954-24.871.405-.1.76.355.253,1.165,3.292,1.368-1.57-1.722,1.975,1.215-1.469-3.495-1.57-.1-.3-.912v-.608l-1.013-.659-.456.051-.76.253-.507-1.064-.3-.608-.608-.152-.709-.051-.76.253-.557.557-.152.861.051.557.506.405.456.2.456.051h.405l.507.253Z" transform="translate(-9.262)"/>
    </g>
  </g>
</svg>
