<svg xmlns="http://www.w3.org/2000/svg" width="55.921" height="55.918" viewBox="0 0 55.921 55.918">
  <g id="Group_20" data-name="Group 20" transform="translate(-998.921 -230.973)">
    <g id="Group_5" data-name="Group 5" transform="translate(866 -263)">
      <path id="Path_3" data-name="Path 3" d="M18.183,36.365A27.959,27.959,0,1,0-9.777,8.4a27.961,27.961,0,0,0,27.96,27.96" transform="translate(142.698 513.526)" fill="#ff724a"/>
      <path id="Path_4" data-name="Path 4" d="M.474,22.595a.729.729,0,0,1-.729-.729V-11.417a.731.731,0,0,1,.729-.732.731.731,0,0,1,.729.732V21.866a.729.729,0,0,1-.729.729" transform="translate(160.407 516.709)" fill="#fff"/>
      <path id="Path_5" data-name="Path 5" d="M22.119.95H-11.164a.729.729,0,0,1-.729-.729.731.731,0,0,1,.729-.732H22.119a.731.731,0,0,1,0,1.461" transform="translate(155.404 521.712)" fill="#fff"/>
      <path id="Path_6" data-name="Path 6" d="M15.781,16.255a.732.732,0,0,1-.518-.214L-8.271-7.493a.728.728,0,0,1,0-1.032.728.728,0,0,1,1.032,0L16.3,15.008a.731.731,0,0,1-.518,1.247" transform="translate(156.867 518.175)" fill="#fff"/>
      <path id="Path_7" data-name="Path 7" d="M.475,16.255a.731.731,0,0,1-.518-1.247L23.493-8.526a.728.728,0,0,1,1.032,0,.728.728,0,0,1,0,1.032L.992,16.04a.732.732,0,0,1-.518.214" transform="translate(148.639 518.175)" fill="#fff"/>
      <path id="Path_8" data-name="Path 8" d="M9.326,20.7a.726.726,0,0,1-.666-.432L-4.95-10.1a.73.73,0,0,1,.366-.964.732.732,0,0,1,.967.366L9.992,19.673a.73.73,0,0,1-.666,1.03" transform="translate(158.36 517.147)" fill="#fff"/>
      <path id="Path_9" data-name="Path 9" d="M.475,9.8a.73.73,0,0,1-.3-1.4L30.549-5.205a.732.732,0,0,1,.967.366.733.733,0,0,1-.369.967L.773,9.737a.732.732,0,0,1-.3.063" transform="translate(145.219 519.667)" fill="#fff"/>
      <path id="Path_10" data-name="Path 10" d="M20.7,8.659a.7.7,0,0,1-.26-.049L-10.66-3.244a.73.73,0,0,1-.423-.941.733.733,0,0,1,.944-.423l31.1,11.854a.73.73,0,0,1-.26,1.413" transform="translate(155.73 519.931)" fill="#fff"/>
      <path id="Path_11" data-name="Path 11" d="M.476,21.175a.7.7,0,0,1-.26-.049.73.73,0,0,1-.423-.941l11.854-31.1a.733.733,0,0,1,.944-.423.732.732,0,0,1,.423.944L1.159,20.7a.733.733,0,0,1-.683.472" transform="translate(154.479 517.037)" fill="#fff"/>
      <path id="Path_12" data-name="Path 12" d="M15.161,7.581A11.657,11.657,0,1,1,3.5-4.076,11.657,11.657,0,0,1,15.161,7.581" transform="translate(157.376 514.351)" fill="#ff724a"/>
      <path id="Path_13" data-name="Path 13" d="M7.936,15.874a12.2,12.2,0,1,1,12.2-12.2,12.216,12.216,0,0,1-12.2,12.2m0-23.313A11.109,11.109,0,1,0,19.043,3.671,11.121,11.121,0,0,0,7.936-7.44" transform="translate(152.945 518.262)" fill="#fff"/>
    </g>
  </g>
</svg>
