<svg xmlns="http://www.w3.org/2000/svg" width="55.921" height="55.918" viewBox="0 0 55.921 55.918">
  <g id="Group_38" data-name="Group 38" transform="translate(-1159.726 -314.973)">
    <path id="Path_51" data-name="Path 51" d="M18.183,36.365A27.959,27.959,0,1,0-9.777,8.4a27.961,27.961,0,0,0,27.96,27.96" transform="translate(1169.503 334.526)" fill="#6c3f12"/>
    <path id="Path_50" data-name="Path 50" d="M-1284.062-373.9a3.454,3.454,0,0,0-.806-.371c-.638-.227-1.287-.424-1.926-.651s-.806-.758-.379-1.228a12.022,12.022,0,0,0,.868-1.214,5.641,5.641,0,0,0,.288-3.275,3.294,3.294,0,0,0-1.088-1.943,3.081,3.081,0,0,0-4.755.8,14.233,14.233,0,0,0-.485,1.917,4.97,4.97,0,0,0,1.182,3.734c.429.544.263,1.008-.411,1.216-.205.063-.415.115-.622.171a9.206,9.206,0,0,1-.906.321,2.918,2.918,0,0,0-1.385.59c-.987-.234-1.062-.81-.5-1.517a4.7,4.7,0,0,0,.508-5.358,3.042,3.042,0,0,0-5.28-.177,4.968,4.968,0,0,0,.52,5.708c.453.545.329,1.016-.342,1.249-.732.254-1.475.476-2.2.745a2.064,2.064,0,0,0-1.246,1.045c-.315-.053-.323-.071-.28-.638.225-.362.439-.731.676-1.085a4.321,4.321,0,0,0,.673-2.436,4.148,4.148,0,0,0-.995-2.973,3.029,3.029,0,0,0-3.238-.807,3.576,3.576,0,0,1-.388.1h0c-.3.27-.6.526-.882.813a3.537,3.537,0,0,0-.886,2.01,4.9,4.9,0,0,0,.495,3.117c.2.375.546.674.753,1.048a1.147,1.147,0,0,1,.071.719.426.426,0,0,1-.534.319l-.687.234a2.682,2.682,0,0,0-1.978-3.079c-.642-.172-1.264-.417-1.9-.627a.721.721,0,0,1-.349-1.245c.114-.135.224-.273.329-.415a5.111,5.111,0,0,0,.8-3.576,3.32,3.32,0,0,0-2.808-3.13,2.869,2.869,0,0,0-2.246.563,2.593,2.593,0,0,0-.324.236,4.457,4.457,0,0,0-1.1,3.733,4.141,4.141,0,0,0,.274.9,1.832,1.832,0,0,0,.121.382c.261.454.533.9.81,1.347.384.617.274.975-.4,1.212-.654.228-1.31.449-1.973.65a2.6,2.6,0,0,0-1.893,2.433q-.023,5.908-.005,11.816a1.041,1.041,0,0,0,.194.6c.236.3.494.242.627-.12a7.083,7.083,0,0,0,.267-.856,6.75,6.75,0,0,0,.271-1.425c.024-3.243.009-6.487.02-9.731a3.552,3.552,0,0,1,.161-.741.99.99,0,0,1,.819-.676l.164.022c.886-.293,1.778-.572,2.656-.887a2.869,2.869,0,0,0,.613-.422c.5-.267.916-.014,1.372.172.864.353,1.754.643,2.633.958,1.095.392,1.408.5,1.493,1.75.012.183.036.366.053.548l-.942.51c-.267.4-.563.787-.791,1.209a1.8,1.8,0,0,0-.211.818c-.012,3.965,0,7.931-.011,11.9a.62.62,0,0,0,.431.654,1.062,1.062,0,0,0,.728-.208c.114-.076.144-.337.145-.515.01-2.439.008-4.878.01-7.317,0-1.417-.014-2.835.019-4.251a2.892,2.892,0,0,1,.3-.842.1.1,0,0,1,.022-.074l.057-.07.091-.046.168-.1h0q0,5.144-.006,10.289c0,.381,0,.762.009,1.143a.541.541,0,0,0,.487.561c.479.093.813-.2.815-.749.007-1.592,0-3.185,0-4.777q0-3.205,0-6.411c0-.219,0-.419-.29-.435l.933-.307c.722-.326,1.437-.671,2.173-.964a.951.951,0,0,1,.622.078c.438.175.858.394,1.286.595h0c0,.041,0,.082,0,.123l-.015.341,0,.016q0,.278,0,.555l0,0q.005,3.125.01,6.249a.662.662,0,0,0,.551.617.741.741,0,0,0,.8-.424q0-3.513.009-7.026a9.38,9.38,0,0,1,1.432.515,1.24,1.24,0,0,1,.521,1.2q-.006,4.189-.007,8.378c0,.15-.01.3.005.449a.635.635,0,0,0,.679.654c.378.007.6-.191.64-.629.031-.365.011-.734.011-1.1,0-2.48-.049-4.96.018-7.438a2.942,2.942,0,0,0-2.163-3.168l-.008,0-.993-.172a.217.217,0,0,1-.037-.014l.053-.065h0l.976-.391c1.2-.468,2.39-.948,3.6-1.392a1.019,1.019,0,0,1,.655.062c.617.243,1.219.524,1.827.791-.271-.015-.5.035-.529.365q0,5.468,0,10.936,0,2.387,0,4.774c.436.612.881.613,1.318,0q.013-7.888.025-15.776h0l.3.077c1.322.283,1.632.665,1.632,2q0,5.294,0,10.588a1.145,1.145,0,0,0,.119.542.609.609,0,0,0,.778.276.732.732,0,0,0,.481-.809c0-3.693.016-7.386-.008-11.078a2.652,2.652,0,0,0-1.577-2.523.755.755,0,0,1,.16-.121c.9-.364,1.8-.738,2.711-1.074a.968.968,0,0,1,.694-.013,19.849,19.849,0,0,0,3.753,1.406.968.968,0,0,1,.749.777,2.774,2.774,0,0,1,.151.628c.01,2.384.006,4.767.005,7.151,0,1.566.031,3.134-.014,4.7a5.39,5.39,0,0,0,.4,1.93,5.479,5.479,0,0,0,.26.676.26.26,0,0,0,.493,0,1.452,1.452,0,0,0,.179-.61q.01-6.926,0-13.852A2.714,2.714,0,0,0-1284.062-373.9Zm-30.042-3.113a.639.639,0,0,1-.882.017,4.3,4.3,0,0,1-1.255-1.675h0c-.054-.3-.119-.607-.161-.912a4.257,4.257,0,0,1,.344-2.021,2.192,2.192,0,0,1,1.267-.816,1.79,1.79,0,0,1,1.941,1.388A3.671,3.671,0,0,1-1314.1-377.013Zm11.457,6.547a.527.527,0,0,0-.2-.135A.527.527,0,0,1-1302.647-370.466Zm-.261-.155-.017,0Zm-.055-.012-.023,0Zm-1.727-2.818c-.359.31-.828.352-1.249-.313a3.5,3.5,0,0,1-.63-4.364,2.756,2.756,0,0,1,.628-.541,1.583,1.583,0,0,1,1.809.131,2.207,2.207,0,0,1,.763,1.358A3.719,3.719,0,0,1-1304.689-373.451Zm7.957-2.045a.647.647,0,0,1-.859.02,3.715,3.715,0,0,1-1.125-4.465,1.73,1.73,0,0,1,1.651-1,1.823,1.823,0,0,1,1.576,1.349c.114.387.159.795.235,1.193A3.875,3.875,0,0,1-1296.732-375.5Zm6.829-1.292c-.122-.122-.221-.267-.33-.4a3.429,3.429,0,0,1-.569-.808,3.65,3.65,0,0,1,.256-3.288,1.737,1.737,0,0,1,2.546-.249,1.375,1.375,0,0,1,.549,1.07,3.494,3.494,0,0,1-.964,3.657C-1288.988-376.222-1289.329-376.211-1289.9-376.788Z" transform="translate(2489.567 714.351)" fill="#fff"/>
  </g>
</svg>
