<svg xmlns="http://www.w3.org/2000/svg" width="55.921" height="55.918" viewBox="0 0 55.921 55.918">
  <g id="Group_49" data-name="Group 49" transform="translate(-1004 -398.973)">
    <path id="Path_69" data-name="Path 69" d="M18.183,36.365A27.959,27.959,0,1,0-9.777,8.4a27.961,27.961,0,0,0,27.96,27.96" transform="translate(1013.777 418.526)" fill="#ea7f7b"/>
    <path id="Path_73" data-name="Path 73" d="M506.933,68.472l1.4,1.305c-.179.2-.118.14-.792.8-.5.516-1.065.962-1.609,1.427a20.841,20.841,0,0,1-1.748,1.245c-.3.188-.6.4-.91.568l-.948.5a19.723,19.723,0,0,1-6.8,2V57.373h5.986V56.042h-5.986V52.361a4.379,4.379,0,1,0-2.771,0v3.681h-5.986v1.331h5.986V76.324a19.717,19.717,0,0,1-6.8-2l-.949-.5c-.311-.173-.605-.38-.909-.568a20.678,20.678,0,0,1-1.748-1.245c-.544-.465-1.109-.911-1.609-1.427-.675-.664-.613-.6-.792-.8l1.4-1.305a19.306,19.306,0,0,1-5.278-2.123,22.086,22.086,0,0,0,.884,6.214l1.4-1.306c.2.22.129.154.867.881.549.564,1.168,1.058,1.767,1.567a23.14,23.14,0,0,0,1.928,1.374c.335.208.66.434,1,.626l1.051.553A22.058,22.058,0,0,0,494.1,78.63l.047-1.086.048,1.086a22.058,22.058,0,0,0,9.116-2.372l1.05-.553c.345-.192.671-.418,1.006-.626a23.124,23.124,0,0,0,1.927-1.374c.6-.509,1.219-1,1.767-1.567.739-.727.671-.661.868-.881l1.4,1.306a22.122,22.122,0,0,0,.885-6.214A19.336,19.336,0,0,1,506.933,68.472Z" transform="translate(537.926 366.151)" fill="#fff"/>
  </g>
</svg>
