<svg xmlns="http://www.w3.org/2000/svg" width="55.921" height="55.918" viewBox="0 0 55.921 55.918">
  <g id="Group_15" data-name="Group 15" transform="translate(-687.726 -314.973)">
    <path id="Path_17" data-name="Path 17" d="M18.183,36.365A27.959,27.959,0,1,0-9.777,8.4a27.961,27.961,0,0,0,27.96,27.96" transform="translate(697.503 334.526)" fill="#1ab215"/>
    <path id="Path_35" data-name="Path 35" d="M1065.361-737.5c-.039.074-.067.142-.108.2a2.764,2.764,0,0,1-1.31,1,2.02,2.02,0,0,0-.473.263,8.317,8.317,0,0,0-2.419,3.073.224.224,0,0,0,.025.268.8.8,0,0,1-.033.992.994.994,0,0,1,.655.784,1.051,1.051,0,0,0,.063-.1,12.58,12.58,0,0,1,3.628-4.412,28.6,28.6,0,0,1,5.156-3.14,17.338,17.338,0,0,1,3.78-1.419,8.306,8.306,0,0,1,2.81-.225,4.725,4.725,0,0,1,2.434.871,1.931,1.931,0,0,1,.755,1.667,6.031,6.031,0,0,1-.731,2.553c-.374.749-.782,1.481-1.175,2.22a5.921,5.921,0,0,0-.566,1.962,10.2,10.2,0,0,1-.524,2.584,4.03,4.03,0,0,1-3.168,2.558,3.688,3.688,0,0,1-1.287,0,.752.752,0,0,0-.119,0c.286.205.574.38.824.6a14.123,14.123,0,0,1,1.153,1.106,2.05,2.05,0,0,1,.471,1.338,6,6,0,0,1-.718,2.891,12.421,12.421,0,0,1-2.672,3.623,8.518,8.518,0,0,1-1.9,1.41,2.761,2.761,0,0,1-1.958.245,6.434,6.434,0,0,1-3.083-1.719,18.051,18.051,0,0,1-2.207-2.758,13.4,13.4,0,0,1-1.705-3.2l-.115-.321c-.014.319-.023.615-.041.911-.048.785-.09,1.57-.153,2.354a10.751,10.751,0,0,1-.154,1.066c-.041.225-.139.311-.293.315a.343.343,0,0,1-.364-.3,3.294,3.294,0,0,1-.081-.57c-.023-.426-.031-.853-.044-1.279-.021-.706-.041-1.411-.063-2.117,0-.1-.018-.2-.03-.319-.113.255-.214.5-.329.742a17.294,17.294,0,0,1-1.942,3.019,16.414,16.414,0,0,1-1.825,2.087,6.953,6.953,0,0,1-3.122,1.722,2.968,2.968,0,0,1-2.518-.512,11.466,11.466,0,0,1-3.1-3.34,10.038,10.038,0,0,1-1.367-3.073,4.323,4.323,0,0,1-.076-1.795,2.514,2.514,0,0,1,1.047-1.572c.48-.365.965-.722,1.433-1.071-.1.009-.227.027-.356.03a4.082,4.082,0,0,1-4.193-3.361c-.106-.572-.162-1.153-.217-1.733a7.358,7.358,0,0,0-.782-2.836,14.7,14.7,0,0,1-1.156-2.611,5.092,5.092,0,0,1-.278-1.656,2.073,2.073,0,0,1,1.242-1.893,5.414,5.414,0,0,1,2.05-.517,9.154,9.154,0,0,1,3.837.655,25.143,25.143,0,0,1,4.474,2.267,24.276,24.276,0,0,1,3.3,2.372,12.325,12.325,0,0,1,3.388,4.557.368.368,0,0,0,.045.055,1.012,1.012,0,0,1,.677-.742.737.737,0,0,1-.2-.534.652.652,0,0,1,.247-.531.129.129,0,0,0,.044-.179,7.959,7.959,0,0,0-2.377-3.248,1.558,1.558,0,0,0-.341-.2,2.659,2.659,0,0,1-1.248-1.009c-.052-.084-.093-.175-.153-.29a2.3,2.3,0,0,1,.807.2,2.488,2.488,0,0,1,.838.621c.24.261.5.5.757.75a8.564,8.564,0,0,1,1.986,3c.045.115.094.166.225.164.276,0,.276.007.4-.249a8.994,8.994,0,0,1,2.565-3.249,2,2,0,0,0,.251-.243,2.407,2.407,0,0,1,1.607-.806.206.206,0,0,1,.046,0A.585.585,0,0,1,1065.361-737.5Z" transform="translate(-344.833 1072.71)" fill="#fff"/>
  </g>
</svg>
