<svg xmlns="http://www.w3.org/2000/svg" width="55.921" height="55.918" viewBox="0 0 55.921 55.918">
  <g id="Group_16" data-name="Group 16" transform="translate(-687.726 -230.973)">
    <path id="Path_17" data-name="Path 17" d="M18.183,36.365A27.959,27.959,0,1,0-9.777,8.4a27.961,27.961,0,0,0,27.96,27.96" transform="translate(697.503 250.526)" fill="#ffd35d"/>
    <g id="Group_8" data-name="Group 8" transform="translate(697.608 1049.025)">
      <path id="Path_28" data-name="Path 28" d="M12.641-803.887a5.413,5.413,0,0,0-.867.413,2.094,2.094,0,0,1-1.753.5l.653-.591c-3.036.5-3.245-.462-4.1-2.294l1.578.715.066-.106-.463-.739c1.263.5,2.074-.294,3-.816l-.229-.324a.777.777,0,0,1,.832-.231,3.691,3.691,0,0,1,2.379,1.586c.044.063.086.128.162.241l.154-.661a2.325,2.325,0,0,1,.18,2.357,3.951,3.951,0,0,1-3.048,2.4c-1.17.213-2.362.322-3.549.427A5.924,5.924,0,0,0,4.4-799.731a2.122,2.122,0,0,0-.81,2.2,5.194,5.194,0,0,0,1.952,3.116.546.546,0,0,0,.52.064c.916-.207,1.837-.4,2.766-.535,1.3-.184,2.607-.284,3.907-.461,1.381-.188,2.756-.414,4.131-.642.422-.07.836-.2,1.25-.3.56-.148.716-.3.72-.891a5.562,5.562,0,0,0-.2-1.042,5.33,5.33,0,0,1,.826-4.032A7.671,7.671,0,0,1,25.5-805.74a6.55,6.55,0,0,1,3.624.59,14.8,14.8,0,0,1,1.268.8l-.434-.768a1.953,1.953,0,0,1,1.711,1.312.59.59,0,0,0,.518.487,5.137,5.137,0,0,1,.612.187l-.04.485c.717.117,1.417.241,2.121.344s.71.095.758.829a3.327,3.327,0,0,1,.033,1.292c-.235.615-.388,1.254-.632,1.86a4.57,4.57,0,0,1-.55.8,3.087,3.087,0,0,1,.328,2.362,6.878,6.878,0,0,1-.375.924l-.227-.465a3.03,3.03,0,0,1-1.47,2.459l-.833-1.08c-.106.514-.2.938-.281,1.363q-.694,3.468-1.381,6.938a1.456,1.456,0,0,0,.007.557,9.339,9.339,0,0,0,1.656,3.92,1.64,1.64,0,0,0,.538.443c.637.326,1.285.632,1.938.924a1.014,1.014,0,0,1,.624.637c.071.225.214.428.3.651.1.282-.028.483-.329.485-1.4.008-2.8.091-4.193-.029a2.361,2.361,0,0,1-1.978-1.418,7.548,7.548,0,0,0-4.482-4.216c-.526-.193-1.05-.354-1.235-.957a.793.793,0,0,0-.882-.551c-1.2.006-2.406.041-3.609.048a.954.954,0,0,1-.492-.146,17.937,17.937,0,0,0-4.48-2.2,8.675,8.675,0,0,0-1.578-.265.889.889,0,0,0-.842.425,9.9,9.9,0,0,1-2.38,2.206,4.314,4.314,0,0,1-2.456.638,6.144,6.144,0,0,0-5.346,3.231c-.291.477-.245.537.1.974a1.327,1.327,0,0,0,1.312.6.429.429,0,0,1,.337.141,10.858,10.858,0,0,1,.692,1c.172.282.029.528-.309.532-.908.011-1.817.009-2.725,0a.506.506,0,0,1-.324-.119c-.712-.7-1.434-1.4-2.11-2.138-.367-.4-.317-.475.039-.909a5.913,5.913,0,0,0,1.007-2.273c.2-.734.335-1.486.526-2.223a.919.919,0,0,1,.31-.477c.671-.5,1.363-.966,2.046-1.446a1.345,1.345,0,0,0,.585-.885c.2-.991.484-1.966.721-2.951a3.545,3.545,0,0,0-.595-3.046,5.377,5.377,0,0,1-.809-5.058A4.317,4.317,0,0,1,4.8-801.58a12.785,12.785,0,0,1,3.71-.486,14.962,14.962,0,0,0,2.314-.18,5.894,5.894,0,0,0,1.729-.727c.175-.1.174-.507.253-.773ZM20.8-793.407c1.1.039,1.574-.718,2.072-1.43a58.866,58.866,0,0,0,4.19,7l.1-.047-1.875-5.484.063-.056.553.44-.241-.656a5.606,5.606,0,0,1,1.29,2.463l.093-.025-.351-2.7.143-.042a11.943,11.943,0,0,1,.543,1.374,11.418,11.418,0,0,1,.2,1.439l.059,0,.205-1.926.092,0,.387,2.151.1.008a10.8,10.8,0,0,0,.4-1.9,10.15,10.15,0,0,0-.27-1.878l.06-.016.812,1.881a4.17,4.17,0,0,0-1.388-3.717l.74.313.033-.047-1.926-2.315.079,1.1-.088.011-.89-1.545A4.111,4.111,0,0,0,26.16-797c.225.6.519,1.172.782,1.756a7.181,7.181,0,0,1-1.167-1.337,13.992,13.992,0,0,1-.762-1.709c-.028.519-.085.964-.067,1.406s.113.865.182,1.349c-1.311-1.99-.761-5.236.95-5.807a4.428,4.428,0,0,0-.488,2.1l.422-.81.38,1.047c.113-.208.171-.494.318-.55a2.631,2.631,0,0,1,1.1-.2c.818.063,1.628.218,2.444.317a.444.444,0,0,0,.294-.158c.165-.171.307-.365.458-.549l.1.047a2.171,2.171,0,0,0,.029,2.208,2.35,2.35,0,0,1,1.593-.7,5.82,5.82,0,0,0,1.2-.325,1.3,1.3,0,0,0,.454-1.046.194.194,0,0,0-.087-.1c-.505-.257-1.011-.514-1.52-.764-.157-.077-.323-.134-.485-.2a1.248,1.248,0,0,1,.424-.008,2.58,2.58,0,0,0,.881.035c.559-.172,1.088-.439,1.641-.672-.043-.2-.044-.19-.5-.262-.785-.125-1.569-.257-2.349-.385v-.545c-.548.021-.828-.3-1.037-.778a3.607,3.607,0,0,0-.648-.766l.06,1.055a6.437,6.437,0,0,0-4.612-1.887,7.83,7.83,0,0,0-4.763,1.511l.9.372c-.426.119-.786.193-1.126.321s-.652.308-.977.465l.028.091.751.252c-1.252.621-1.727,1.1-1.809,1.834l1.474-.515-.455,1.06.077.039,1.159-1.46c-.324.835-.717,1.613-.983,2.432a3.209,3.209,0,0,0,.179,2.538l.149-.233A6.671,6.671,0,0,1,20.8-793.407Zm-.452-2.68c-.162.053-.218.068-.272.089a25.7,25.7,0,0,1-5.286,1.625c-2.032.333-4.082.564-6.126.827a3.553,3.553,0,0,0-1.939.638,4.386,4.386,0,0,0-.973,3.268c.145.466.366.625.853.551a3.11,3.11,0,0,0,.782-.231c.916-.406,1.81-.863,2.738-1.239a3.223,3.223,0,0,1,2.611-.067A40.6,40.6,0,0,1,18.35-787.7a1,1,0,0,0,.357.156c.772.139,1.545.284,2.322.39.492.067.545-.021.433-.531-.106-.489-.218-.976-.318-1.466a1.117,1.117,0,0,1,.624-1.394c.328-.123.513.015.444.356a1.928,1.928,0,0,0,.206,1.614,7.381,7.381,0,0,0,.929,1.082c.66.6,1.368,1.154,2.038,1.747a2.013,2.013,0,0,1,.311.518l-.082.115c.8-.019,1.436.784,2.4.426a6.027,6.027,0,0,1-1.607-2.121c-.425-.787-.883-1.558-1.289-2.355a39.4,39.4,0,0,1-2.364-4.559c-.063.078-.128.161-.2.241a2.871,2.871,0,0,1-1.685,1.007c-.748.136-1.159-.245-1-.977.116-.546.311-1.074.425-1.62A6.635,6.635,0,0,0,20.35-796.087ZM9.8-804.381c.436,0,.845.032,1.246-.007a3.45,3.45,0,0,0,1.985-.722.542.542,0,0,0,.116-.814,3.27,3.27,0,0,0-1.871-.971c.039.053.075.1.108.148.283.414.217.6-.261.744-.16.047-.321.091-.485.124-.487.1-.974.191-1.529.3a4.682,4.682,0,0,0,2.269.515l.023.119Zm22.457,9.8.681,1.346a3.942,3.942,0,0,0,.871-1.63Zm.467-2.257c.022.583-.073.689-.66.708a5.627,5.627,0,0,1-.639-.044c-.059,0-.117-.023-.176-.025a1.929,1.929,0,0,0-.239.031,3.682,3.682,0,0,0,2.993-.127c.5-.222.529-.516.035-.927.151.484-.148.577-.47.743C33.105-796.239,33.04-796.8,32.727-796.837Zm2.544-3.892-.712,1.438A1.083,1.083,0,0,0,35.27-800.729Zm-3.639,2.639a1.167,1.167,0,0,0,.916.611l-.22-.9Zm3.092-.381.073.006.166-.653-.406.146Z" fill="#10106a"/>
      <path id="Path_29" data-name="Path 29" d="M135.533-504.639c-.6,0-1.194-.007-1.791,0-.291.005-.44-.065-.5-.4a14.962,14.962,0,0,0-2.093-4.979c-.25-.419-.224-.5.264-.614a6.4,6.4,0,0,0,3-1.851c.307-.3.612-.6.908-.914a1.008,1.008,0,0,1,1.2-.216c.251.122.1.287.035.417a15.06,15.06,0,0,1-1.232,2.256,2.681,2.681,0,0,0-.307,2.514c.111.45.19.908.274,1.364a.426.426,0,0,0,.338.391,12.864,12.864,0,0,1,1.425.464,1.286,1.286,0,0,1,.471.425,2.519,2.519,0,0,1,.251.512c.183.406.051.623-.386.626C136.774-504.636,136.153-504.64,135.533-504.639Z" transform="translate(-123.693 -272.613)" fill="#10106a"/>
      <path id="Path_30" data-name="Path 30" d="M303.145-481a3.771,3.771,0,0,1,2.18-.009.827.827,0,0,1,.46.441,1.093,1.093,0,0,0,.747.691,8.09,8.09,0,0,1,.876.388c-.408.55-.8,1.06-1.167,1.58-.127.178-.352.447-.3.563a2.013,2.013,0,0,0,.624.7,5.033,5.033,0,0,0,1.057.6,1.849,1.849,0,0,1,.9,1.106c.14.3-.024.51-.367.512-1.159.006-2.317.01-3.476-.007a.567.567,0,0,1-.4-.222q-.7-1.079-1.354-2.191a1.057,1.057,0,0,1-.139-.576c.061-.831.153-1.66.237-2.49C303.055-480.264,303.1-480.618,303.145-481Z" transform="translate(-283.161 -302.835)" fill="#10106a"/>
      <path id="Path_31" data-name="Path 31" d="M358.3-750.162a4.976,4.976,0,0,1,2.059-4.533l-.633-.136-.023-.09,1.051-.6-.933-.469.019-.133,1.809-.132.019.06-.794.278.54.424-.7.392.71.139a7.722,7.722,0,0,0-2.146,2.057A6.636,6.636,0,0,0,358.3-750.162Z" transform="translate(-334.689 -47.47)" fill="#10106a"/>
      <path id="Path_32" data-name="Path 32" d="M360.078-750.143l.452.682c-.383.141-.7.082-.834-.16a1.124,1.124,0,0,1,.2-1.162c.24-.177.72-.043,1.094.32Z" transform="translate(-335.918 -52.476)" fill="#10106a"/>
      <path id="Path_33" data-name="Path 33" d="M432.611-725.247c-.153,0-.306,0-.46,0a1.048,1.048,0,0,0-.776.256.973.973,0,0,1-.657.1,3.065,3.065,0,0,1-.64-.193C430.424-725.657,431.487-725.737,432.611-725.247Z" transform="translate(-401.33 -75.955)" fill="#10106a"/>
    </g>
  </g>
</svg>
