<svg xmlns="http://www.w3.org/2000/svg" width="55.921" height="55.918" viewBox="0 0 55.921 55.918">
  <g id="Group_58" data-name="Group 58" transform="translate(-1223.726 -314.973)">
    <path id="Path_54" data-name="Path 54" d="M18.183,36.365A27.959,27.959,0,1,0-9.777,8.4a27.961,27.961,0,0,0,27.96,27.96" transform="translate(1233.503 334.526)" fill="#797979"/>
    <g id="Group_40" data-name="Group 40" transform="translate(759.786 221.555)">
      <path id="Path_52" data-name="Path 52" d="M500.008,113.274c-.048.1-.088.2-.133.3-.016-.107-.022-.2-.04-.311,0,0-.748-3.242.749-4.406a5.659,5.659,0,0,0-5.155,4.656c-.057.283-.1.573-.143.867a57.013,57.013,0,0,0-2.517-5.939,22.685,22.685,0,0,0-2.674,6.032c-.04-.326-.089-.648-.153-.96a5.657,5.657,0,0,0-5.154-4.656c1.5,1.164.748,4.406.748,4.406-.062.378-.094.723-.137,1.08a14.555,14.555,0,0,0-.633-1.572,6.04,6.04,0,0,0-6.552-3.47c1.853.813,1.927,4.364,1.927,4.364.532,6.248,2.748,9.378,4.656,10.936a17.569,17.569,0,0,0-3.018,3.293c2.935-1.036,3.885,4.3,7.851,2.394a4.93,4.93,0,0,0,.345-.694,16.192,16.192,0,0,1,1.8,2.79l.037.036c-.556,4.333-2.283,5.609-3.413,5.975a5.627,5.627,0,0,0,4.967-5.31.954.954,0,0,0,.155-.7,2.989,2.989,0,0,1,1.685-2.4,4.951,4.951,0,0,0,.41.859c3.965,1.906,4.915-3.43,7.851-2.394a16.49,16.49,0,0,0-3.3-3.5c1.864-1.608,3.955-4.736,4.47-10.781,0,0,.074-3.551,1.927-4.365A6.04,6.04,0,0,0,500.008,113.274Z" fill="#fff"/>
      <path id="Path_53" data-name="Path 53" d="M488.395,138.4a9.624,9.624,0,0,1-1.03.137A2.593,2.593,0,0,0,488.395,138.4Z" fill="#fff"/>
    </g>
  </g>
</svg>
