<svg xmlns="http://www.w3.org/2000/svg" width="55.921" height="55.918" viewBox="0 0 55.921 55.918">
  <g id="Group_55" data-name="Group 55" transform="translate(-847.726 -398.973)">
    <path id="Path_63" data-name="Path 63" d="M18.183,36.365A27.959,27.959,0,1,0-9.777,8.4a27.961,27.961,0,0,0,27.96,27.96" transform="translate(857.503 418.526)" fill="#02d8ff"/>
    <path id="Path_62" data-name="Path 62" d="M-1188.651,127.346l.686-1.523.112.028a10.9,10.9,0,0,1,.077,2.314,4.919,4.919,0,0,1,.5-.539c.131-.1.336-.233.459-.194s.183.271.249.427a1.091,1.091,0,0,1,.052.272,3.4,3.4,0,0,1,.664-.253c.078-.013.272.175.27.268-.006.258.152.3.329.335a2.758,2.758,0,0,0,.339.055c.3.029.432.169.386.481a1.935,1.935,0,0,0,0,.5.6.6,0,0,0,.49.593,12.3,12.3,0,0,1,1.218.431c-.03.4-.069.911-.111,1.473a5.921,5.921,0,0,1,.583-.209c.542-.13.9.189.71.7-.256.7.189,1.247.3,1.862.027.146.25.293.415.367a.755.755,0,0,1,.461.677,3.811,3.811,0,0,0,.611,1.859c.171.233.088.656.108.994.005.085-.059.174-.055.26.009.211.039.421.06.631a2.167,2.167,0,0,0,.663-.184c.557-.376,1.094-.783,1.615-1.208.242-.2.413-.481.642-.7a1.374,1.374,0,0,1,.595-.413,3.687,3.687,0,0,0,1.981-1.149,1.947,1.947,0,0,1,.268-.272c1.232-.8,1.507-2.121,1.856-3.4a3.144,3.144,0,0,1,1.052-1.934c.035.394.066.743.107,1.21.175-.2.288-.306.375-.431a3.831,3.831,0,0,0,.765-2.122c.014-.559.031-1.118.059-1.676q.114-2.25.241-4.5a.662.662,0,0,1,.059-.293c.06-.1.175-.252.246-.241a.413.413,0,0,1,.291.237,6.545,6.545,0,0,1,.215,1.2c.04.684.02,1.372.036,2.058a5.7,5.7,0,0,0,.07.949c.026.135.19.244.291.364.115-.1.285-.177.335-.3a7.607,7.607,0,0,0,.547-2.793c.011-1.07.08-2.139.124-3.208a.252.252,0,0,1,.015-.113c.1-.159.2-.313.3-.469a1.525,1.525,0,0,1,.267.449,12.967,12.967,0,0,1,.188,4.369,5,5,0,0,0-.006.789l.1.058a2.731,2.731,0,0,0,.315-.535c.408-1.282.787-2.573,1.2-3.855a11.043,11.043,0,0,1,.472-1.076.679.679,0,0,1,.359.843c-.211.916-.453,1.824-.7,2.731-.109.4-.255.793-.384,1.189l.081.112c.194-.1.459-.15.568-.308.265-.384.441-.828.687-1.227.1-.162.372-.408.418-.379.252.158.227.419.107.672q-.246.518-.487,1.038c-.051.11-.1.223-.146.336.452.165.76.109.894-.261.208-.574.743-.68,1.147-.974l.131.035a1.469,1.469,0,0,1-.078.468,3.528,3.528,0,0,1-.417.544c-.263.318-.2.567.189.687a4.4,4.4,0,0,0,.567.1c.161.5-.648,1.058.17,1.55-.194.243-.377.477-.565.707-.056.068-.133.12-.182.192-.381.55-.323.692.326.788,0,.034.006.077-.01.1-.323.5-.321.486.236.642a.354.354,0,0,1,.18.293,2.39,2.39,0,0,0,.123,1.308c.064.165-.128.451-.247.655-.054.092-.217.121-.331.179-.348.176-.359.47-.042.708.1.078.264.23.243.3a7.806,7.806,0,0,1-1,2.5,4.355,4.355,0,0,1-.664.728c-.364.322-.368.576-.037.922a.629.629,0,0,1,.13.525c-.176.544-.453,1.056-.611,1.6a4.121,4.121,0,0,1-1.94,2.343,1.129,1.129,0,0,0-.351.39,1.2,1.2,0,0,1-1.2.639,4.884,4.884,0,0,0-1.2.132.871.871,0,0,0-.734.646c-.017.07-.135.182-.172.17-.48-.158-.7.271-1,.464a.978.978,0,0,1-.933.108c-.462-.163-.5-.137-.663.318-.122.351-.254.4-.547.155-.222-.187-.4-.426-.609-.631-.255-.25-.463-.22-.57.118a9.23,9.23,0,0,0-.3,1.3.626.626,0,0,0,.134.459,3.815,3.815,0,0,0,.835.776c1.092.644,2.21,1.244,3.321,1.857a15.413,15.413,0,0,1,1.4.776,4.827,4.827,0,0,1,.8.834,5.874,5.874,0,0,1,.4.556c.235.345.146.622-.26.708-.228.049-.28.142-.275.36a1.443,1.443,0,0,1-1.855,1.491.606.606,0,0,0-.444.079.34.34,0,0,1-.524-.016c-.357-.312-.428-.28-.6.141a.448.448,0,0,1-.248.179.67.67,0,0,1-.264.01c-.086,0-.172-.021-.283-.035l-.139.6a7.841,7.841,0,0,1-.589-.577c-.216-.262-.336-.281-.572-.026a1.217,1.217,0,0,0-.114.153c-.36.538-.371.555-.927.188a1.35,1.35,0,0,0-1.065-.3c-.39.084-.583-.127-.642-.465a.309.309,0,0,0-.39-.3c-.314.029-.629.065-.944.074a.361.361,0,0,1-.269-.119c-.241-.344-.453-.708-.691-1.053a1.6,1.6,0,0,0-.3-.263c-.082.106-.2.2-.237.321a4.2,4.2,0,0,0-.177.934.513.513,0,0,1-.524.574c-.571.038-1.144.069-1.716.066-.267,0-.373.087-.37.341a2.673,2.673,0,0,1-.021.344c-.04.331-.122.567-.566.487a.691.691,0,0,0-.789.574.875.875,0,0,1-.77.685l.623-1.539-1.941.334c.018.2.045.493.071.786-.482.085-.635-.049-.562-.5.024-.15.079-.295.112-.444.092-.413.276-.719.762-.662.077-.534.085-.461.624-.516a14.123,14.123,0,0,0,1.967-.433c.061-.015.124-.183.119-.276a4.182,4.182,0,0,1,.574-2.3,1.718,1.718,0,0,0,.2-.573c.025-.173.031-.443-.068-.518a.91.91,0,0,0-.6-.11.657.657,0,0,0-.407.261,2.975,2.975,0,0,1-2.237,1.149c-.812.11-.861.2-.717,1.009.1.574-.371.8-.7,1.089a.581.581,0,0,1-.8-.01c.019-.027.03-.058.042-.059.317-.019.727.018.792-.369a3.239,3.239,0,0,0-.058-1.3c-.073-.288-.6-.317-.817-.076a6.149,6.149,0,0,0-.456.651c-.4-.269-.256-.622-.114-.975-.472-.063-.921-.138-1.372-.168-.083-.006-.228.161-.258.271a4.19,4.19,0,0,1-.09.569c-.1-.263-.323-.541-.289-.784a1.043,1.043,0,0,1,.991-.816c.33-.012.662.039.993.035q.915-.01,1.83-.055a.5.5,0,0,0,.482-.463q.089-.469.168-.94a1.594,1.594,0,0,1,.678-1.107c.189-.13.367-.276.544-.422a1.362,1.362,0,0,0,.241-2.021,3.715,3.715,0,0,0-1.927-1.1c-.075-.026-.215.055-.288.125a7.263,7.263,0,0,0-.763.8,2.887,2.887,0,0,0-.27.642c-.04.1-.074.244-.144.267a.319.319,0,0,1-.29-.1,2.037,2.037,0,0,1-.3-.686,2.841,2.841,0,0,1,.021-.912,3.941,3.941,0,0,0,0-1.738,1.17,1.17,0,0,1,.153-.823,3.652,3.652,0,0,1,1.953-1.685c.687-.223.772-.481.521-1.168a4.526,4.526,0,0,0-.2-.5,6.367,6.367,0,0,1-.5-2.163,4.806,4.806,0,0,0-2.011-3.462c-.5-.35-1.064-.609-1.56-.963a4.475,4.475,0,0,1-.874-.869.378.378,0,0,1,.122-.565.438.438,0,0,0,.076-.385,1.962,1.962,0,0,0-.282-.539,10,10,0,0,1-1.3-3.84c-.058-.286.084-.375.342-.338a.629.629,0,0,1,.568.491q.246.942.494,1.883a.964.964,0,0,0,.171.367c.139-.962-.2-2.029.746-2.854a13.582,13.582,0,0,1,.118,2.871Z" transform="translate(2052.164 288.716)" fill="#fff"/>
  </g>
</svg>
