<svg xmlns="http://www.w3.org/2000/svg" width="55.921" height="55.918" viewBox="0 0 55.921 55.918">
  <g id="Group_59" data-name="Group 59" transform="translate(-923.726 -314.973)">
    <path id="Path_41" data-name="Path 41" d="M18.183,36.365A27.959,27.959,0,1,0-9.777,8.4a27.961,27.961,0,0,0,27.96,27.96" transform="translate(933.503 334.526)" fill="#797979"/>
    <g id="Group_36" data-name="Group 36" transform="translate(835.265 532.367)">
      <g id="Group_24" data-name="Group 24" transform="translate(92.735 -185.147)">
        <path id="Path_42" data-name="Path 42" d="M92.737-91.226h0Z" transform="translate(-92.737 92.148)" fill="#fff"/>
        <rect id="Rectangle_1" data-name="Rectangle 1" width="45.77" height="1.843" transform="translate(0 0)" fill="#fff"/>
      </g>
      <g id="Group_25" data-name="Group 25" transform="translate(103.078 -202.819)">
        <path id="Path_43" data-name="Path 43" d="M158.957-179.117v0Z" transform="translate(-158.266 202.819)" fill="#fff"/>
        <rect id="Rectangle_2" data-name="Rectangle 2" width="1.382" height="23.702" transform="translate(0 0)" fill="#fff"/>
      </g>
      <g id="Group_26" data-name="Group 26" transform="translate(128.414 -202.819)">
        <path id="Path_44" data-name="Path 44" d="M311.018-179.117v0Z" transform="translate(-310.327 202.819)" fill="#fff"/>
        <rect id="Rectangle_3" data-name="Rectangle 3" width="1.382" height="23.702" transform="translate(0 0)" fill="#fff"/>
      </g>
      <g id="Group_27" data-name="Group 27" transform="translate(106.986 -193.624)">
        <rect id="Rectangle_4" data-name="Rectangle 4" width="0.922" height="9.399" transform="translate(0 0)" fill="#fff"/>
      </g>
      <g id="Group_28" data-name="Group 28" transform="translate(110.973 -190.147)">
        <rect id="Rectangle_5" data-name="Rectangle 5" width="0.922" height="5.921" transform="translate(0 0)" fill="#fff"/>
      </g>
      <g id="Group_29" data-name="Group 29" transform="translate(114.546 -189.021)">
        <rect id="Rectangle_6" data-name="Rectangle 6" width="0.922" height="5.717" transform="translate(0 0)" fill="#fff"/>
      </g>
      <g id="Group_30" data-name="Group 30" transform="translate(118.837 -189.125)">
        <rect id="Rectangle_7" data-name="Rectangle 7" width="0.922" height="5.821" transform="translate(0 0)" fill="#fff"/>
      </g>
      <g id="Group_31" data-name="Group 31" transform="translate(122.31 -189.838)">
        <rect id="Rectangle_8" data-name="Rectangle 8" width="0.922" height="5.612" transform="translate(0 0)" fill="#fff"/>
      </g>
      <g id="Group_32" data-name="Group 32" transform="translate(125.784 -192.703)">
        <rect id="Rectangle_9" data-name="Rectangle 9" width="0.922" height="9.399" fill="#fff"/>
      </g>
      <g id="Group_33" data-name="Group 33" transform="translate(131.457 -189.053)">
        <rect id="Rectangle_10" data-name="Rectangle 10" width="0.922" height="4.291" fill="#fff"/>
      </g>
      <g id="Group_34" data-name="Group 34" transform="translate(101.393 -189.333)">
        <rect id="Rectangle_11" data-name="Rectangle 11" width="0.922" height="5.108" transform="translate(0 0)" fill="#fff"/>
      </g>
      <g id="Group_35" data-name="Group 35" transform="translate(98.509 -201.364)">
        <path id="Path_45" data-name="Path 45" d="M128.1-176.656l-.713-.583c.054-.066,5.4-6.7,5-14.191l-.14-2.656,1.026,2.454c.04.095,4.074,9.524,12.243,9.524,8.536,0,12.08-6.154,12.08-9.449l.915-.076c.911,5.406,3.377,13.872,6.157,13.872.032,0,.065,0,.1,0l.065.919c-.054,0-.11.006-.164.006-3.5,0-5.7-8.069-6.608-12.285-1.257,3.588-5.169,7.939-12.543,7.939-6.526,0-10.558-5.511-12.217-8.388C132.876-182.573,128.312-176.914,128.1-176.656Z" transform="translate(-127.388 194.086)" fill="#fff"/>
      </g>
    </g>
  </g>
</svg>
